<svg width="24" height="24" viewBox="0 0 24 24" fill="none" xmlns="http://www.w3.org/2000/svg">
<path d="M7.07454 12.668C6.66037 12.668 6.3252 12.3323 6.3252 11.9186C6.3252 11.505 6.66037 11.169 7.07454 11.169H8.27087L9.11365 9.48425C9.29711 9.11601 9.74619 8.96614 10.1144 9.15013C10.2803 9.23281 10.4018 9.36982 10.468 9.52782L12 13.1444L13.3278 8.61207C13.4417 8.21601 13.8554 7.98819 14.252 8.10262C14.5134 8.17822 14.7016 8.38478 14.7659 8.62966L15.457 11.2504H21.2504C21.6643 11.2504 22 11.5864 22 12C22 14.7614 20.8806 17.2617 19.0711 19.0711C17.2617 20.8806 14.7614 22 12 22C9.23858 22 6.73832 20.8806 4.92887 19.0711C3.11942 17.2617 2 14.7614 2 12C2 9.23858 3.11942 6.73832 4.92887 4.92887C6.73832 3.11942 9.23858 2 12 2C13.4011 2 14.737 2.28976 15.9504 2.81207C17.2039 3.35092 18.3299 4.14567 19.2617 5.13018C19.5444 5.42887 19.5315 5.90079 19.2328 6.18346C18.9341 6.46614 18.4622 6.45328 18.1795 6.15459C17.3934 5.32441 16.4344 4.64908 15.3591 4.18714C14.331 3.74436 13.195 3.49895 12 3.49895C9.65249 3.49895 7.5273 4.45039 5.98871 5.98871C4.45039 7.5273 3.49895 9.65249 3.49895 12C3.49895 14.3475 4.45039 16.4727 5.98871 18.0113C7.5273 19.5496 9.65249 20.5011 12 20.5011C14.3475 20.5011 16.4727 19.5496 18.0113 18.0113C19.3845 16.6381 20.2898 14.7979 20.4685 12.7496H14.8816C14.5501 12.7472 14.2467 12.5252 14.1588 12.19L14.0058 11.6087L12.8457 15.5685C12.7848 15.7769 12.6344 15.9575 12.4189 16.0483C12.0402 16.2084 11.601 16.0302 11.4417 15.6507L9.72441 11.5987L9.42992 12.1877C9.3231 12.4685 9.04987 12.668 8.73123 12.668H7.07454Z" fill="white" stroke="white"/>
</svg>
