<svg width="24" height="24" viewBox="0 0 24 24" fill="none" xmlns="http://www.w3.org/2000/svg">
<path fill-rule="evenodd" clip-rule="evenodd" d="M14.5134 5.55682C14.5134 6.43287 14.0768 7.20602 13.4112 7.66676L14.5113 10.6227C14.9175 10.5203 15.3426 10.4659 15.7803 10.4659C18.6631 10.4659 21 12.824 21 15.733C21 18.6419 18.6631 21 15.7803 21C12.8976 21 10.5607 18.6419 10.5607 15.733C10.5607 15.3894 10.5933 15.0534 10.6555 14.7282L7.67815 13.8409C7.64042 13.9012 7.5999 13.9604 7.55656 14.0184C6.71366 15.1456 5.12481 15.3698 4.00776 14.5193C2.8907 13.6687 2.66846 12.0655 3.51136 10.9383C4.35425 9.81107 5.94311 9.58681 7.06016 10.4374C7.75317 10.965 8.10179 11.7824 8.06532 12.5961L11.0573 13.4878C11.5342 12.468 12.3259 11.6276 13.3059 11.0942L12.1933 8.10468C12.1228 8.11061 12.0516 8.11364 11.9796 8.11364C10.5802 8.11364 9.4458 6.96891 9.4458 5.55682C9.4458 4.14473 10.5802 3 11.9796 3C13.379 3 14.5134 4.14473 14.5134 5.55682Z" fill="white"/>
</svg>
