<svg width="24" height="24" viewBox="0 0 24 24" fill="none" xmlns="http://www.w3.org/2000/svg">
<path fill-rule="evenodd" clip-rule="evenodd" d="M4.0392 11.0561C4.23904 9.34803 4.98397 7.74984 6.16354 6.49844C7.34311 5.24705 8.89453 4.40906 10.5878 4.10871C12.2811 3.80837 14.0261 4.06165 15.5641 4.83102L17.4141 3.60102C15.5305 2.39323 13.2964 1.85202 11.0689 2.06395C8.84151 2.27588 6.7495 3.22871 5.12755 4.77003C3.5056 6.31134 2.44742 8.35209 2.12228 10.5658C1.83831 12.4992 2.1278 14.467 2.94529 16.2285L4.57457 15C4.06892 13.7569 3.88189 12.4006 4.0392 11.0561ZM11.223 13.8251C10.9802 13.7245 10.7596 13.577 10.5739 13.391C10.3879 13.2053 10.2404 12.9847 10.1398 12.7419C10.0391 12.4991 9.9873 12.2388 9.9873 11.976C9.9873 11.7132 10.0391 11.4529 10.1398 11.2101C10.2404 10.9673 10.3879 10.7467 10.5739 10.561L19.0639 4.901L13.4039 13.391C13.2181 13.577 12.9976 13.7245 12.7548 13.8251C12.512 13.9258 12.2517 13.9776 11.9889 13.9776C11.726 13.9776 11.4658 13.9258 11.223 13.8251ZM16.1525 20.888C16.4745 21.0094 16.8269 21.07 17.2095 21.07C17.5549 21.07 17.8955 21.0187 18.2315 20.916C18.5722 20.8087 18.8709 20.6524 19.1275 20.447V18.494H18.2665V20.0181C18.1663 20.0762 18.0637 20.1236 17.9585 20.16C17.7345 20.2347 17.5012 20.272 17.2585 20.272C16.9972 20.272 16.7592 20.23 16.5445 20.146C16.3299 20.062 16.1432 19.943 15.9845 19.789C15.8259 19.6304 15.7022 19.446 15.6135 19.236C15.5295 19.026 15.4875 18.7974 15.4875 18.55C15.4875 18.298 15.5295 18.067 15.6135 17.857C15.7022 17.647 15.8259 17.465 15.9845 17.311C16.1432 17.157 16.3322 17.038 16.5515 16.954C16.7709 16.87 17.0089 16.828 17.2655 16.828C17.5315 16.828 17.7742 16.8747 17.9935 16.968C18.2175 17.0567 18.4252 17.1967 18.6165 17.388L19.1905 16.828C18.9619 16.5667 18.6795 16.3684 18.3435 16.233C18.0122 16.0977 17.6389 16.03 17.2235 16.03C16.8409 16.03 16.4885 16.093 16.1665 16.219C15.8445 16.3404 15.5622 16.5154 15.3195 16.744C15.0815 16.968 14.8972 17.234 14.7665 17.542C14.6359 17.85 14.5705 18.186 14.5705 18.55C14.5705 18.914 14.6359 19.25 14.7665 19.558C14.8972 19.866 15.0815 20.1344 15.3195 20.363C15.5575 20.587 15.8352 20.762 16.1525 20.888ZM4.29492 21L6.49992 16.1H7.39592L9.60792 21H8.65592L8.16889 19.866H5.71815L5.23292 21H4.29492ZM6.94126 17.0076L7.86225 19.152H6.02367L6.94126 17.0076ZM11.4203 21L9.27832 16.1H10.2653L11.8944 19.8773L13.5413 16.1H14.4513L12.3163 21H11.4203ZM19.1343 8.40102L20.3643 6.55101L20.3743 6.54102C21.3769 8.08733 21.9328 9.88065 21.9804 11.723C22.0207 13.2816 21.696 14.824 21.0371 16.2285L19.3936 15C19.7522 14.118 19.9517 13.1763 19.9795 12.2187C20.0179 10.8958 19.7275 9.58409 19.1343 8.40102Z" fill="white"/>
</svg>
