<svg width="24" height="24" viewBox="0 0 24 24" fill="none" xmlns="http://www.w3.org/2000/svg">
<path fill-rule="evenodd" clip-rule="evenodd" d="M17 3C20.866 3 24 6.13401 24 10L22 10C22 7.23858 19.7614 5 17 5V3ZM15.9075 11.25L14.42 7.155C14.1662 6.46375 13.51 6 12.775 6H10.5V7.75H12.775L14.0525 11.25H9.84375L9.52875 10.375H10.5V8.625H6.125V10.375H7.65625L9.24875 14.75H8.6625C8.2775 12.7987 6.64125 11.355 4.59375 11.2587C2.14375 11.1362 0 13.175 0 15.625C0 18.075 1.925 20 4.375 20C6.5275 20 8.26875 18.5212 8.6625 16.5H12.3375C12.7225 18.4513 14.3588 19.895 16.4062 19.9912C18.8563 20.105 21 18.075 21 15.6163C21 13.1663 19.075 11.2413 16.625 11.2413H15.9075V11.25ZM6.8425 16.5C6.4925 17.5238 5.53875 18.25 4.375 18.25C2.905 18.25 1.75 17.095 1.75 15.625C1.75 14.155 2.905 13 4.375 13C5.53875 13 6.4925 13.7262 6.8425 14.75H4.375V16.5H6.8425ZM12.3375 14.75H11.1125L10.4738 13H13.125C12.74 13.5075 12.46 14.0938 12.3375 14.75ZM16.625 18.25C15.155 18.25 14 17.095 14 15.625C14 14.8112 14.3587 14.1112 14.9187 13.63L15.7587 15.94L17.4037 15.345L16.555 13.0087C16.5681 13.0087 16.5812 13.0066 16.5944 13.0044C16.6075 13.0022 16.6206 13 16.6338 13C18.1038 13 19.2588 14.155 19.2588 15.625C19.2588 17.095 18.095 18.25 16.625 18.25ZM17 7C18.6569 7 20 8.34315 20 10L17 10V7Z" fill="white"/>
</svg>
