<svg width="24" height="24" viewBox="0 0 24 24" fill="none" xmlns="http://www.w3.org/2000/svg">
<path fill-rule="evenodd" clip-rule="evenodd" d="M20 12C20 16.4183 16.4183 20 12 20C7.58172 20 4 16.4183 4 12C4 7.58172 7.58172 4 12 4C16.4183 4 20 7.58172 20 12ZM22 12C22 17.5228 17.5228 22 12 22C6.47715 22 2 17.5228 2 12C2 6.47715 6.47715 2 12 2C17.5228 2 22 6.47715 22 12ZM12.0001 7L14.8501 9.85L12.7001 12L14.8501 14.14L12.0001 17H11.5001V13.2L9.20011 15.5L8.50011 14.79L11.2901 12L8.50011 9.2L9.20011 8.5L11.5001 10.79V7H12.0001ZM13.4401 9.85L12.5001 8.91V10.79L13.4401 9.85ZM12.5001 15.08L13.4401 14.14L12.5001 13.2V15.08ZM8.56066 10.95L9.62132 12.0106L8.56066 13.0713L7.5 12.0106L8.56066 10.95ZM16.6213 12.0106L15.5607 10.95L14.5 12.0106L15.5607 13.0713L16.6213 12.0106Z" fill="white"/>
</svg>
