<svg width="24" height="24" viewBox="0 0 24 24" fill="none" xmlns="http://www.w3.org/2000/svg">
<path fill-rule="evenodd" clip-rule="evenodd" d="M20 12C20 16.4183 16.4183 20 12 20C7.58172 20 4 16.4183 4 12C4 7.58172 7.58172 4 12 4C16.4183 4 20 7.58172 20 12ZM22 12C22 17.5228 17.5228 22 12 22C6.47715 22 2 17.5228 2 12C2 6.47715 6.47715 2 12 2C17.5228 2 22 6.47715 22 12ZM12 7L14.85 9.85L12.7 12L14.85 14.14L12 17H11.5V13.2L9.2 15.5L8.5 14.79L11.29 12L8.5 9.2L9.2 8.5L11.5 10.79V7H12ZM13.44 9.85L12.5 8.91V10.79L13.44 9.85ZM12.5 15.08L13.44 14.14L12.5 13.2V15.08Z" fill="white"/>
</svg>
