<svg width="24" height="24" viewBox="0 0 24 24" fill="none" xmlns="http://www.w3.org/2000/svg">
<path fill-rule="evenodd" clip-rule="evenodd" d="M17.5927 8.33711C17.5903 8.50027 17.5384 8.65906 17.4435 8.79337C17.3486 8.92767 17.215 9.03144 17.0597 9.09151C16.9043 9.15158 16.7342 9.16526 16.5709 9.13081C16.4076 9.09636 16.2584 9.01533 16.1423 8.89799C16.0262 8.78065 15.9484 8.63229 15.9187 8.47171C15.889 8.31113 15.9088 8.14555 15.9756 7.99598C16.0424 7.8464 16.1531 7.71956 16.2938 7.63153C16.4345 7.54349 16.5988 7.49823 16.7658 7.50148C17.2246 7.50453 17.5946 7.8784 17.5927 8.33711ZM17.5008 8.33558C17.5029 8.23773 17.4849 8.14046 17.4477 8.04957C17.4105 7.95867 17.355 7.87601 17.2844 7.8065C17.2139 7.737 17.1297 7.68206 17.037 7.64497C16.9442 7.60788 16.8448 7.58938 16.7446 7.59059C16.547 7.59483 16.3591 7.67452 16.221 7.81257C16.0829 7.95062 16.0058 8.13603 16.0061 8.329C16.0065 8.52197 16.0842 8.70712 16.2227 8.84473C16.3613 8.98233 16.5495 9.06141 16.7471 9.06501C17.1733 9.06501 17.5008 8.74882 17.5008 8.33558ZM8.70109 14.125C8.77081 13.799 8.84094 13.4711 8.9121 13.1397C8.95186 13.1397 8.99004 13.1408 9.02704 13.1418C9.10722 13.1439 9.18188 13.146 9.25523 13.137C9.39492 13.119 9.45336 13.1773 9.49961 13.3021C9.72122 13.897 9.94557 14.4917 10.17 15.0864L10.1702 15.087C10.3315 15.5144 10.4928 15.9419 10.6531 16.3696C10.6859 16.4566 10.7262 16.4963 10.8293 16.4963C12.782 16.4949 14.7347 16.4942 16.6872 16.4942C16.8963 16.4942 17.0866 16.4423 17.2525 16.311C17.5831 16.0495 17.7091 15.6317 17.5725 15.2123C16.7993 12.8399 15.9083 10.508 15.0179 8.1778L15.0179 8.17773L15.0178 8.17765L14.8294 7.68429C14.7922 7.58571 14.7397 7.55977 14.6359 7.55977C13.9714 7.56333 13.3071 7.56301 12.6428 7.5627L12.0734 7.56252C12.0321 7.56252 11.9924 7.56432 11.9393 7.56673L11.9381 7.56679L14.154 13.7043L13.818 13.7046H13.8179H13.8179H13.8179H13.8179C13.3994 13.7051 12.9926 13.7056 12.5859 13.6988C12.5443 13.6973 12.4846 13.6256 12.4659 13.5752C12.2826 13.0813 12.1016 12.5864 11.9207 12.0916L11.9207 12.0916L11.9207 12.0915L11.9207 12.0915L11.9205 12.0909C11.8085 11.7846 11.6965 11.4784 11.584 11.1724C11.4396 10.78 11.2948 10.3877 11.15 9.9955L11.15 9.99533L11.1499 9.99517L11.1498 9.995L11.1498 9.99483C10.8689 9.23391 10.5881 8.47306 10.3099 7.71115C10.2687 7.59883 10.2171 7.55855 10.0893 7.55855C7.89719 7.56119 5.70498 7.56252 3.51266 7.56252C3.45547 7.56074 3.39824 7.56422 3.34172 7.57289C2.70671 7.69314 2.36671 8.30781 2.59421 8.93316C3.02963 10.1263 3.4663 11.3195 3.90423 12.5128C4.05579 12.9273 4.38673 13.1538 4.84174 13.1538H5.91956C5.957 13.1538 5.99428 13.1573 6.03442 13.161L6.03444 13.1611L6.03448 13.1611L6.03455 13.1611L6.03462 13.1611C6.05239 13.1627 6.07072 13.1645 6.08988 13.166L5.37768 16.4783C5.40966 16.4856 5.44214 16.4906 5.47487 16.4932C5.89733 16.4944 6.31973 16.4944 6.74212 16.4944C7.18927 16.4943 7.63642 16.4943 8.08365 16.4957C8.17803 16.4957 8.20459 16.4584 8.22115 16.3736C8.26795 16.1357 8.31953 15.8986 8.37113 15.6615C8.39292 15.5614 8.41472 15.4612 8.43616 15.361C8.52464 14.9501 8.61253 14.5391 8.70109 14.125ZM5.77897 9.93787C5.73324 9.81887 5.68707 9.69868 5.6405 9.57683C6.45707 9.57683 7.24833 9.57683 8.03928 9.57957C8.06252 9.58301 8.08462 9.59173 8.10378 9.60503C8.12295 9.61834 8.13864 9.63586 8.14959 9.65618C8.28461 9.99966 8.41618 10.3445 8.54994 10.695C8.59636 10.8167 8.64304 10.939 8.69022 11.0622C8.67077 11.0636 8.65287 11.0651 8.63599 11.0666C8.60323 11.0695 8.5743 11.072 8.54522 11.072C8.34872 11.0721 8.15229 11.072 7.95591 11.0719H7.95585H7.95578H7.95572H7.95566C7.42285 11.0717 6.89035 11.0715 6.35769 11.0744C6.25644 11.0744 6.19988 11.0546 6.16269 10.9524C6.03962 10.6163 5.9112 10.282 5.77897 9.93787ZM19.6604 12.591H18.7645C18.7584 12.6072 18.754 12.6239 18.7514 12.641C18.7512 12.9109 18.7502 13.1808 18.7492 13.4507V13.4508V13.4509V13.4509V13.451C18.7468 14.1219 18.7444 14.7928 18.7542 15.4635C18.762 16.0193 19.0889 16.3705 19.637 16.4648L19.6494 16.467C19.7425 16.4832 19.8395 16.5 19.9311 16.4886C19.983 16.4821 20.0355 16.4766 20.0881 16.471L20.0882 16.471C20.2792 16.4507 20.4722 16.4302 20.6451 16.3632C21.0876 16.1917 21.2083 15.802 21.2126 15.3799C21.219 14.7543 21.2175 14.1289 21.2161 13.5035C21.2155 13.2337 21.2148 12.9639 21.2148 12.6941C21.2131 12.6593 21.2096 12.6245 21.2042 12.59H20.2979V12.7652L20.2981 13.3619V13.362V13.3621V13.3622V13.3622C20.2984 14.0383 20.2987 14.7141 20.2958 15.3899C20.2959 15.4806 20.2776 15.5705 20.242 15.6542C20.1811 15.7904 20.0467 15.8166 19.9129 15.7992C19.7792 15.7818 19.6961 15.7055 19.6773 15.5727C19.6669 15.5026 19.6612 15.4318 19.6604 15.3609V12.7668V12.591ZM2.46208 13.9073H1.56613C1.56273 13.8617 1.56035 13.8165 1.558 13.7718C1.55279 13.6726 1.54769 13.5755 1.53175 13.48C1.4955 13.2636 1.38331 13.1687 1.20737 13.1827C1.01987 13.1977 0.920181 13.2963 0.917368 13.5124C0.908305 14.1783 0.907055 14.8446 0.908305 15.5105C0.908305 15.6753 1.00893 15.7818 1.15237 15.7998C1.35425 15.8252 1.47738 15.7605 1.52738 15.5862C1.55028 15.4979 1.56276 15.4074 1.56456 15.3164C1.56848 15.233 1.56723 15.1497 1.56593 15.0627V15.0627L1.56592 15.0627C1.56525 15.0179 1.56456 14.9721 1.56456 14.9248H2.4877C2.4884 14.9637 2.48939 15.0026 2.49039 15.0415C2.49748 15.3176 2.5045 15.5913 2.40176 15.8557C2.27332 16.1835 2.00957 16.3599 1.67425 16.4404C1.3961 16.5092 1.10619 16.5196 0.823617 16.471C0.386111 16.3944 0.0795442 16.0946 0.0320436 15.6469C0.00541736 15.3436 -0.0051177 15.0391 0.000480638 14.7347L0.000264282 14.5583C-0.000449909 14.17 -0.00116496 13.7813 0.029231 13.3952C0.0679816 12.9068 0.349548 12.605 0.846742 12.5363C1.13906 12.4974 1.43596 12.5057 1.7255 12.5611C2.17207 12.6465 2.41301 12.9529 2.45958 13.4156C2.47066 13.5243 2.46779 13.6343 2.46484 13.7473C2.46347 13.8 2.46208 13.8532 2.46208 13.9073ZM23.1571 13.7208H23.994C24.0087 13.444 23.9671 13.1922 23.8227 12.9642C23.578 12.5784 23.1905 12.4689 22.7602 12.4838C22.353 12.4982 21.982 12.6184 21.7945 13.0124C21.5842 13.4562 21.5898 14.1441 22.167 14.5409C22.3103 14.6392 22.4598 14.7288 22.6093 14.8184C22.6858 14.8643 22.7623 14.9101 22.838 14.9572C22.9921 15.0533 23.1146 15.1717 23.1458 15.3585C23.1827 15.5795 23.0546 15.7836 22.8702 15.8007C22.6264 15.823 22.4783 15.6832 22.4727 15.4238C22.4717 15.3616 22.472 15.2993 22.4723 15.2333C22.4725 15.1989 22.4727 15.1635 22.4727 15.1266H21.6211V15.5233C21.6258 15.9662 21.8655 16.2884 22.2986 16.4215C22.4081 16.4529 22.5204 16.4739 22.6339 16.4844C23.3355 16.5616 23.9105 16.2759 23.9865 15.5627C24.0437 15.0274 23.9524 14.5769 23.434 14.2717C23.3773 14.2382 23.3202 14.2055 23.2631 14.1727L23.2631 14.1727L23.263 14.1727C23.1227 14.0922 22.9825 14.0118 22.8493 13.9213C22.7374 13.8494 22.6411 13.7567 22.5658 13.6485C22.4877 13.527 22.4927 13.3652 22.6042 13.2685C22.6761 13.2062 22.813 13.1821 22.9146 13.1937C23.0536 13.2093 23.108 13.3329 23.1258 13.4623C23.1308 13.5023 23.1356 13.5422 23.1403 13.5826L23.1404 13.5829C23.1457 13.6281 23.1511 13.6739 23.1571 13.7208ZM17.0142 8.59054C17.0087 8.4973 17.0032 8.40303 16.9036 8.33372C17.0317 8.20492 17.0583 8.08742 16.9858 7.97602C16.9183 7.87256 16.6899 7.83716 16.4692 7.8982C16.4692 8.16494 16.4692 8.43382 16.4727 8.7024C16.4729 8.72177 16.4893 8.741 16.5056 8.76019C16.5132 8.76911 16.5208 8.77802 16.5267 8.78694L16.5686 8.77137V8.40086C16.8514 8.35813 16.8811 8.38163 16.9124 8.63281C16.9136 8.6423 16.9142 8.65286 16.9149 8.66385C16.9189 8.72922 16.9239 8.80978 17.0539 8.76954C17.0216 8.71563 17.0179 8.65332 17.0142 8.59054ZM16.6302 8.2899C16.6122 8.28793 16.5941 8.28595 16.5761 8.28458V7.94978C16.6072 7.95732 16.638 7.96351 16.6682 7.96956C16.743 7.98457 16.8139 7.99878 16.8749 8.03096C16.9055 8.04683 16.9142 8.1622 16.8886 8.20859C16.8312 8.31187 16.7325 8.30107 16.6302 8.2899Z" fill="white"/>
</svg>
