<svg width="24" height="24" viewBox="0 0 24 24" fill="none" xmlns="http://www.w3.org/2000/svg">
<path fill-rule="evenodd" clip-rule="evenodd" d="M10.1322 17.1963L10.1322 15.5829C9.94331 15.6086 9.75271 15.6217 9.56185 15.6218C7.31862 15.6218 5.48812 13.8947 5.48812 11.7805C5.48812 9.66635 7.31862 7.93943 9.56185 7.93943C9.7526 7.93954 9.94311 7.95248 10.1319 7.97815L10.1319 6.3647C9.9455 6.34749 9.75482 6.33781 9.56185 6.33781C6.3817 6.33781 3.79102 8.78326 3.79102 11.7805C3.79102 14.7777 6.38313 17.2232 9.56213 17.2232C9.75482 17.2232 9.9455 17.2138 10.1322 17.1963ZM18.8342 10.9498L15.5015 10.9498C15.9057 9.23045 17.5353 7.93916 19.4766 7.93943C19.6682 7.93961 19.8596 7.95255 20.0493 7.97815L20.0493 6.3647C19.8603 6.34749 19.6696 6.33781 19.4766 6.33781C16.2976 6.33781 13.7075 8.78299 13.7075 11.7802C13.7075 14.7775 16.2976 17.2229 19.4766 17.2232C19.6696 17.2232 19.8603 17.2138 20.0493 17.1963L20.0493 15.5829C19.8596 15.6085 19.6683 15.6215 19.4766 15.6216C17.5353 15.6216 15.9057 14.3303 15.5015 12.6128L18.8342 12.6128L18.8342 10.9498Z" fill="white"/>
</svg>
