<svg width="24" height="24" viewBox="0 0 24 24" fill="none" xmlns="http://www.w3.org/2000/svg">
<path fill-rule="evenodd" clip-rule="evenodd" d="M15.601 11.0996H14.7007V3.89775C14.7007 2.9075 13.8905 2.09729 12.9003 2.09729H11.0998C10.1095 2.09729 9.29934 2.9075 9.29934 3.89775V11.0996H8.39911C5.91447 11.0996 3.89795 13.1161 3.89795 15.6008V21.9024H20.1021V15.6008C20.1021 13.1161 18.0856 11.0996 15.601 11.0996ZM11.0998 3.89775H12.9003V11.0996H11.0998V3.89775ZM18.3017 20.1019H16.5012V17.4012C16.5012 16.9061 16.0961 16.501 15.601 16.501C15.1058 16.501 14.7007 16.9061 14.7007 17.4012V20.1019H12.9003V17.4012C12.9003 16.9061 12.4952 16.501 12 16.501C11.5049 16.501 11.0998 16.9061 11.0998 17.4012V20.1019H9.29934V17.4012C9.29934 16.9061 8.89423 16.501 8.39911 16.501C7.90398 16.501 7.49888 16.9061 7.49888 17.4012V20.1019H5.69841V15.6008C5.69841 14.1154 6.91372 12.9001 8.39911 12.9001H15.601C17.0863 12.9001 18.3017 14.1154 18.3017 15.6008V20.1019ZM20.0003 6.60263L20.6723 5.12406L22.1509 4.45198L20.6723 3.7799L20.0003 2.30133L19.3282 3.7799L17.8496 4.45198L19.3282 5.12406L20.0003 6.60263ZM4.5698 9.42533L3.89772 10.9039L3.22564 9.42533L1.74707 8.75325L3.22564 8.08117L3.89772 6.6026L4.5698 8.08117L6.04837 8.75325L4.5698 9.42533Z" fill="white"/>
</svg>
