<svg width="24" height="24" viewBox="0 0 24 24" fill="none" xmlns="http://www.w3.org/2000/svg">
<path d="M7.76 16.24C6.67 15.16 6 13.66 6 12C6 10.34 6.67 8.84 7.76 7.76L9.18 9.18C8.45 9.9 8 10.9 8 12C8 13.1 8.45 14.1 9.17 14.83L7.76 16.24ZM16.24 16.24C17.33 15.16 18 13.66 18 12C18 10.34 17.33 8.84 16.24 7.76L14.82 9.18C15.55 9.9 16 10.9 16 12C16 13.1 15.55 14.1 14.83 14.83L16.24 16.24ZM12 10C10.9 10 10 10.9 10 12C10 13.1 10.9 14 12 14C13.1 14 14 13.1 14 12C14 10.9 13.1 10 12 10ZM20 12C20 14.21 19.1 16.21 17.65 17.65L19.07 19.07C20.88 17.26 22 14.76 22 12C22 9.24 20.88 6.74 19.07 4.93L17.65 6.35C19.1 7.79 20 9.79 20 12ZM6.35 6.35L4.93 4.93C3.12 6.74 2 9.24 2 12C2 14.76 3.12 17.26 4.93 19.07L6.35 17.65C4.9 16.21 4 14.21 4 12C4 9.79 4.9 7.79 6.35 6.35Z" fill="white"/>
</svg>
