<svg width="24" height="24" viewBox="0 0 24 24" fill="none" xmlns="http://www.w3.org/2000/svg">
<path fill-rule="evenodd" clip-rule="evenodd" d="M11 19.9381V18C11 17.4477 11.4477 17 12 17C12.5523 17 13 17.4477 13 18V19.9381C14.4607 19.756 15.799 19.1801 16.9055 18.32L15.5353 16.9497C15.1448 16.5592 15.1448 15.9261 15.5353 15.5355C15.9258 15.145 16.559 15.145 16.9495 15.5355L18.3198 16.9058C19.18 15.7992 19.756 14.4608 19.9381 13H18C17.4477 13 17 12.5523 17 12C17 11.4477 17.4477 11 18 11H19.9381C19.4869 7.38128 16.6187 4.51314 13 4.06189V6C13 6.55228 12.5523 7 12 7C11.4477 7 11 6.55228 11 6V4.06189C9.53924 4.24405 8.20078 4.82003 7.09423 5.68024L8.46424 7.05025C8.85477 7.44077 8.85477 8.07394 8.46424 8.46446C8.07372 8.85498 7.44056 8.85498 7.05003 8.46446L5.68005 7.09448C4.81995 8.20098 4.24403 9.53934 4.06189 11H6C6.55228 11 7 11.4477 7 12C7 12.5523 6.55228 13 6 13H4.06189C4.24404 14.4607 4.82001 15.7992 5.68018 16.9057L7.05037 15.5355C7.44089 15.145 8.07406 15.145 8.46458 15.5355C8.85511 15.926 8.85511 16.5592 8.46458 16.9497L7.09441 18.3199C8.20092 19.18 9.53931 19.756 11 19.9381ZM22 12C22 17.5228 17.5228 22 12 22C6.47715 22 2 17.5228 2 12C2 6.47715 6.47715 2 12 2C17.5228 2 22 6.47715 22 12ZM12 14C13.1046 14 14 13.1046 14 12C14 11.8208 13.9764 11.6472 13.9323 11.482L16.7071 8.70711C17.0976 8.31658 17.0976 7.68342 16.7071 7.29289C16.3166 6.90237 15.6834 6.90237 15.2929 7.29289L12.518 10.0677C12.3528 10.0236 12.1792 10 12 10C10.8954 10 10 10.8954 10 12C10 13.1046 10.8954 14 12 14Z" fill="white"/>
</svg>
