<svg width="24" height="24" viewBox="0 0 24 24" fill="none" xmlns="http://www.w3.org/2000/svg">
<path fill-rule="evenodd" clip-rule="evenodd" d="M12 22C17.5228 22 22 17.5228 22 12C22 6.47715 17.5228 2 12 2C6.47715 2 2 6.47715 2 12C2 17.5228 6.47715 22 12 22ZM12 3C11.4477 3 11 3.44772 11 4V6C11 6.55228 11.4477 7 12 7C12.5523 7 13 6.55228 13 6V4C13 3.44772 12.5523 3 12 3ZM12 14C13.1046 14 14 13.1046 14 12C14 11.8208 13.9764 11.6472 13.9323 11.482L16.7071 8.70711C17.0976 8.31658 17.0976 7.68342 16.7071 7.29289C16.3166 6.90237 15.6834 6.90237 15.2929 7.29289L12.518 10.0677C12.3528 10.0236 12.1792 10 12 10C10.8954 10 10 10.8954 10 12C10 13.1046 10.8954 14 12 14ZM13 18V20C13 20.5523 12.5523 21 12 21C11.4477 21 11 20.5523 11 20V18C11 17.4477 11.4477 17 12 17C12.5523 17 13 17.4477 13 18ZM5.63582 5.63603C5.24529 6.02656 5.24529 6.65972 5.63582 7.05025L7.05003 8.46446C7.44056 8.85498 8.07372 8.85498 8.46424 8.46446C8.85477 8.07394 8.85477 7.44077 8.46424 7.05025L7.05003 5.63603C6.65951 5.24551 6.02634 5.24551 5.63582 5.63603ZM15.5352 16.9498C15.1447 16.5593 15.1447 15.9261 15.5352 15.5356C15.9258 15.145 16.5589 15.145 16.9494 15.5356L18.3637 16.9498C18.7542 17.3403 18.7542 17.9735 18.3637 18.364C17.9731 18.7545 17.34 18.7545 16.9494 18.364L15.5352 16.9498ZM3 12C3 12.5523 3.44772 13 4 13H6C6.55228 13 7 12.5523 7 12C7 11.4477 6.55228 11 6 11H4C3.44772 11 3 11.4477 3 12ZM18 13C17.4477 13 17 12.5523 17 12C17 11.4477 17.4477 11 18 11H20C20.5523 11 21 11.4477 21 12C21 12.5523 20.5523 13 20 13H18ZM5.63615 18.3639C6.02668 18.7545 6.65984 18.7545 7.05037 18.3639L8.46458 16.9497C8.85511 16.5592 8.85511 15.926 8.46458 15.5355C8.07406 15.145 7.44089 15.145 7.05037 15.5355L5.63615 16.9497C5.24563 17.3402 5.24563 17.9734 5.63615 18.3639Z" fill="white"/>
</svg>
