<svg width="24" height="24" viewBox="0 0 24 24" fill="none" xmlns="http://www.w3.org/2000/svg">
<path d="M8.44482 10.255C8.35482 10.585 8.30482 10.935 8.30482 11.295C8.30482 12.395 8.75482 13.395 9.47482 14.125L8.05482 15.545C6.97482 14.455 6.30482 12.955 6.30482 11.295C6.30482 10.365 6.51482 9.495 6.88482 8.705L5.41482 7.235C4.70482 8.425 4.30482 9.815 4.30482 11.295C4.30482 13.505 5.20482 15.505 6.65482 16.945L5.23482 18.365C3.42482 16.555 2.30482 14.055 2.30482 11.295C2.30482 9.255 2.91482 7.365 3.96482 5.785L1.69482 3.515L3.10482 2.105L21.4848 20.485L20.0748 21.895L8.44482 10.255ZM17.7248 13.885C18.0948 13.095 18.3048 12.225 18.3048 11.295C18.3048 9.635 17.6348 8.135 16.5448 7.055L15.1248 8.475C15.8548 9.195 16.3048 10.195 16.3048 11.295C16.3048 11.655 16.2548 12.005 16.1648 12.335L17.7248 13.885ZM20.3048 11.295C20.3048 12.775 19.9048 14.165 19.1948 15.355L20.6448 16.805C21.6948 15.225 22.3048 13.335 22.3048 11.295C22.3048 8.535 21.1848 6.035 19.3748 4.225L17.9548 5.645C19.4048 7.085 20.3048 9.085 20.3048 11.295Z" fill="white"/>
</svg>
