<svg width="25" height="24" viewBox="0 0 25 24" fill="none" xmlns="http://www.w3.org/2000/svg">
<path fill-rule="evenodd" clip-rule="evenodd" d="M20.75 2C19.0914 2 17.75 3.4085 17.75 5.15C17.75 7.5125 20.75 11 20.75 11C20.75 11 23.75 7.5125 23.75 5.15C23.75 3.4085 22.4086 2 20.75 2ZM4.75 13C3.09143 13 1.75 14.4085 1.75 16.15C1.75 18.5125 4.75 22 4.75 22C4.75 22 7.75 18.5125 7.75 16.15C7.75 14.4085 6.40857 13 4.75 13ZM12.75 7C10.5409 7 8.75 8.79086 8.75 11C8.75 13.2091 10.5409 15 12.75 15H17.75C18.8546 15 19.75 15.8954 19.75 17C19.75 18.1046 18.8546 19 17.75 19H8.75V21H17.75C19.9591 21 21.75 19.2091 21.75 17C21.75 14.7909 19.9591 13 17.75 13H12.75C11.6454 13 10.75 12.1046 10.75 11C10.75 9.89543 11.6454 9 12.75 9H16.75V7H12.75Z" fill="white"/>
</svg>
