<svg width="24" height="24" viewBox="0 0 24 24" fill="none" xmlns="http://www.w3.org/2000/svg">
<path fill-rule="evenodd" clip-rule="evenodd" d="M13.8419 19.195C14.4706 19.885 15.3983 20.23 16.6249 20.23C17.8669 20.23 18.8099 19.8774 19.4539 19.172C20.1133 18.4667 20.4429 17.4547 20.4429 16.136C20.4429 15.124 20.2436 14.2424 19.8449 13.491C19.4463 12.7397 18.7179 11.904 17.6599 10.984C16.8319 10.2634 16.2569 9.65004 15.9349 9.14404C15.6283 8.63804 15.4749 8.09371 15.4749 7.51104C15.4749 6.48371 15.8966 5.97004 16.7399 5.97004C17.1539 5.97004 17.4683 6.10038 17.6829 6.36104C17.8976 6.60638 18.0049 7.00504 18.0049 7.55704V8.38505H20.3969V7.71804C20.3969 6.41471 20.0826 5.41804 19.4539 4.72804C18.8406 4.02271 17.9283 3.67004 16.7169 3.67004C15.4903 3.67004 14.5549 4.02271 13.9109 4.72804C13.2669 5.41804 12.9449 6.39938 12.9449 7.67204C12.9449 8.60738 13.1519 9.45071 13.5659 10.202C13.9799 10.938 14.7083 11.766 15.7509 12.686C16.5789 13.4067 17.1463 14.0277 17.4529 14.549C17.7596 15.055 17.9129 15.6454 17.9129 16.32C17.9129 16.8874 17.7979 17.3014 17.5679 17.562C17.3533 17.8074 17.0313 17.93 16.6019 17.93C15.7279 17.93 15.2909 17.4087 15.2909 16.366V15.262H12.8989V16.182C12.8989 17.4854 13.2133 18.4897 13.8419 19.195ZM7.85619 3.90002H3.99219V20H7.85619C9.11352 20 10.0565 19.6627 10.6852 18.988C11.3139 18.3134 11.6282 17.3244 11.6282 16.021V7.87903C11.6282 6.57569 11.3139 5.58669 10.6852 4.91203C10.0565 4.23736 9.11352 3.90002 7.85619 3.90002ZM8.75319 17.332C8.53852 17.5774 8.22419 17.7 7.81019 17.7H6.52219V6.20002H7.81019C8.22419 6.20002 8.53852 6.32269 8.75319 6.56802C8.98319 6.81336 9.09819 7.21203 9.09819 7.76403V16.136C9.09819 16.688 8.98319 17.0867 8.75319 17.332Z" fill="white"/>
</svg>
