<svg width="25" height="24" viewBox="0 0 25 24" fill="none" xmlns="http://www.w3.org/2000/svg">
<path fill-rule="evenodd" clip-rule="evenodd" d="M5.48109 19.195C6.10975 19.885 7.03742 20.23 8.26409 20.23C9.50609 20.23 10.4491 19.8774 11.0931 19.172C11.7524 18.4667 12.0821 17.4547 12.0821 16.136C12.0821 15.124 11.8828 14.2424 11.4841 13.491C11.0854 12.7397 10.3571 11.904 9.29909 10.984C8.47109 10.2634 7.89609 9.65004 7.57409 9.14404C7.26742 8.63804 7.11409 8.09371 7.11409 7.51104C7.11409 6.48371 7.53575 5.97004 8.37909 5.97004C8.79309 5.97004 9.10742 6.10038 9.32209 6.36104C9.53675 6.60638 9.64409 7.00504 9.64409 7.55704V8.38505H12.0361V7.71804C12.0361 6.41471 11.7218 5.41804 11.0931 4.72804C10.4798 4.02271 9.56742 3.67004 8.35609 3.67004C7.12942 3.67004 6.19409 4.02271 5.55009 4.72804C4.90609 5.41804 4.58409 6.39938 4.58409 7.67204C4.58409 8.60738 4.79109 9.45071 5.20509 10.202C5.61909 10.938 6.34742 11.766 7.39009 12.686C8.21809 13.4067 8.78542 14.0277 9.09209 14.549C9.39875 15.055 9.55209 15.6454 9.55209 16.32C9.55209 16.8874 9.43709 17.3014 9.20709 17.562C8.99242 17.8074 8.67042 17.93 8.24109 17.93C7.36709 17.93 6.93009 17.4087 6.93009 16.366V15.262H4.53809V16.182C4.53809 17.4854 4.85242 18.4897 5.48109 19.195ZM12.8657 6.20002H15.5107V20H18.0407V6.20002H20.6857V3.90002H12.8657V6.20002Z" fill="white"/>
</svg>
