<svg width="24" height="24" viewBox="0 0 24 24" fill="none" xmlns="http://www.w3.org/2000/svg">
<path fill-rule="evenodd" clip-rule="evenodd" d="M17.8183 19.954C18.079 20.9814 18.7843 21.495 19.9343 21.495H20.6013V19.195H20.2103C19.9497 19.195 19.7503 19.172 19.6123 19.126C19.4743 19.08 19.3593 18.9804 19.2673 18.827C19.7427 18.137 19.9803 17.2554 19.9803 16.182V7.71804C19.9803 6.43004 19.6507 5.43338 18.9913 4.72804C18.332 4.02271 17.3813 3.67004 16.1393 3.67004C14.8973 3.67004 13.9467 4.02271 13.2873 4.72804C12.628 5.43338 12.2983 6.43004 12.2983 7.71804V16.182C12.2983 17.47 12.628 18.4667 13.2873 19.172C13.9467 19.8774 14.8973 20.23 16.1393 20.23C16.7833 20.23 17.343 20.138 17.8183 19.954ZM17.4503 16.343C17.4503 17.401 17.0133 17.93 16.1393 17.93C15.2653 17.93 14.8283 17.401 14.8283 16.343V7.55704C14.8283 6.49904 15.2653 5.97004 16.1393 5.97004C17.0133 5.97004 17.4503 6.49904 17.4503 7.55704V16.343ZM3.52734 6.20002H6.17234V20H8.70234V6.20002H11.3473V3.90002H3.52734V6.20002Z" fill="white"/>
</svg>
