<svg width="24" height="24" viewBox="0 0 24 24" fill="none" xmlns="http://www.w3.org/2000/svg">
<path fill-rule="evenodd" clip-rule="evenodd" d="M3.65088 6.20002H6.29588V20H8.82588V6.20002H11.4709V3.90002H3.65088V6.20002ZM16.4218 3.90002H12.6958V20H15.2258V13.445H16.4218C17.6791 13.445 18.6221 13.1077 19.2508 12.433C19.8795 11.7584 20.1938 10.7694 20.1938 9.46603V7.87903C20.1938 6.57569 19.8795 5.58669 19.2508 4.91203C18.6221 4.23736 17.6791 3.90002 16.4218 3.90002ZM17.3418 10.8C17.1425 11.03 16.8358 11.145 16.4218 11.145H15.2258V6.20002H16.4218C16.8358 6.20002 17.1425 6.31502 17.3418 6.54502C17.5565 6.77502 17.6638 7.16602 17.6638 7.71802V9.62702C17.6638 10.179 17.5565 10.57 17.3418 10.8Z" fill="white"/>
</svg>
