<svg width="24" height="24" viewBox="0 0 24 24" fill="none" xmlns="http://www.w3.org/2000/svg">
<path fill-rule="evenodd" clip-rule="evenodd" d="M13.6013 19.195C14.2453 19.885 15.1806 20.23 16.4073 20.23C17.6339 20.23 18.5693 19.885 19.2133 19.195C19.8573 18.4897 20.1793 17.4854 20.1793 16.182V10.915H16.5223V13.215H17.7873V16.366C17.7873 17.4087 17.3503 17.93 16.4763 17.93C15.6023 17.93 15.1653 17.4087 15.1653 16.366V7.55704C15.1653 6.49904 15.6023 5.97004 16.4763 5.97004C17.3503 5.97004 17.7873 6.49904 17.7873 7.55704V9.09804H20.1793V7.71804C20.1793 6.41471 19.8573 5.41804 19.2133 4.72804C18.5693 4.02271 17.6339 3.67004 16.4073 3.67004C15.1806 3.67004 14.2453 4.02271 13.6013 4.72804C12.9573 5.41804 12.6353 6.41471 12.6353 7.71804V16.182C12.6353 17.4854 12.9573 18.4897 13.6013 19.195ZM5.96804 3.90002H3.41504L5.85304 20H9.21104L11.649 3.90002H9.32604L7.67004 16.389H7.62404L5.96804 3.90002Z" fill="white"/>
</svg>
