<svg width="24" height="24" viewBox="0 0 24 24" fill="none" xmlns="http://www.w3.org/2000/svg">
<path fill-rule="evenodd" clip-rule="evenodd" d="M4.49378 19.195C5.13778 19.885 6.06545 20.23 7.27678 20.23C8.48811 20.23 9.40811 19.885 10.0368 19.195C10.6808 18.505 11.0028 17.5314 11.0028 16.274V13.997H8.61078V16.458C8.61078 17.4394 8.18911 17.93 7.34578 17.93C6.50245 17.93 6.08078 17.4394 6.08078 16.458V7.46504C6.08078 6.46838 6.50245 5.97004 7.34578 5.97004C8.18911 5.97004 8.61078 6.46838 8.61078 7.46504V9.32804H11.0028V7.62604C11.0028 6.36871 10.6808 5.39504 10.0368 4.70504C9.40811 4.01504 8.48811 3.67004 7.27678 3.67004C6.06545 3.67004 5.13778 4.01504 4.49378 4.70504C3.86511 5.39504 3.55078 6.36871 3.55078 7.62604V16.274C3.55078 17.5314 3.86511 18.505 4.49378 19.195ZM15.0466 3.90002H12.5166V20H15.0466V12.755H17.7606V20H20.2906V3.90002H17.7606V10.455H15.0466V3.90002Z" fill="white"/>
</svg>
