<svg width="25" height="24" viewBox="0 0 25 24" fill="none" xmlns="http://www.w3.org/2000/svg">
<path fill-rule="evenodd" clip-rule="evenodd" d="M11.527 3.90002H4.62695V20H11.527V17.7H7.15695V12.755H10.63V10.455H7.15695V6.20002H11.527V3.90002ZM16.7314 3.90002H12.9824V20H15.5124V13.1H16.3864C16.9691 13.1 17.3754 13.2457 17.6054 13.537C17.8508 13.8284 17.9734 14.342 17.9734 15.078V18.022C17.9734 18.62 17.9888 19.034 18.0194 19.264C18.0501 19.494 18.1114 19.7394 18.2034 20H20.7794C20.6568 19.724 20.5801 19.448 20.5494 19.172C20.5188 18.8807 20.5034 18.505 20.5034 18.045V15.216C20.5034 14.2654 20.3731 13.5064 20.1124 12.939C19.8671 12.3717 19.4378 11.996 18.8244 11.812V11.766C19.9284 11.3214 20.4804 10.2634 20.4804 8.59202V7.60302C20.4804 6.34569 20.1814 5.41802 19.5834 4.82002C18.9854 4.20669 18.0348 3.90002 16.7314 3.90002ZM17.5594 10.409C17.3141 10.6697 16.9384 10.8 16.4324 10.8H15.5124V6.20002H16.6624C17.1071 6.20002 17.4291 6.33036 17.6284 6.59103C17.8431 6.85169 17.9504 7.27336 17.9504 7.85603V9.09803C17.9504 9.71136 17.8201 10.1484 17.5594 10.409Z" fill="white"/>
</svg>
