<svg width="24" height="24" viewBox="0 0 24 24" fill="none" xmlns="http://www.w3.org/2000/svg">
<path fill-rule="evenodd" clip-rule="evenodd" d="M8.10056 3.90002H4.35156V20H6.88156V13.1H7.75556C8.33823 13.1 8.74456 13.2457 8.97456 13.537C9.2199 13.8284 9.34256 14.342 9.34256 15.078V18.022C9.34256 18.62 9.3579 19.034 9.38856 19.264C9.41923 19.494 9.48056 19.7394 9.57256 20H12.1486C12.0259 19.724 11.9492 19.448 11.9186 19.172C11.8879 18.8807 11.8726 18.505 11.8726 18.045V15.216C11.8726 14.2654 11.7422 13.5064 11.4816 12.939C11.2362 12.3717 10.8069 11.996 10.1936 11.812V11.766C11.2976 11.3214 11.8496 10.2634 11.8496 8.59202V7.60302C11.8496 6.34569 11.5506 5.41802 10.9526 4.82002C10.3546 4.20669 9.4039 3.90002 8.10056 3.90002ZM8.92856 10.409C8.68323 10.6697 8.30756 10.8 7.80156 10.8H6.88156V6.20002H8.03156C8.47623 6.20002 8.79823 6.33036 8.99756 6.59103C9.21223 6.85169 9.31956 7.27336 9.31956 7.85603V9.09803C9.31956 9.71136 9.18923 10.1484 8.92856 10.409ZM20.3209 3.90002H13.6279V20H16.1579V12.985H19.4239V10.685H16.1579V6.20002H20.3209V3.90002Z" fill="white"/>
</svg>
