<svg width="24" height="24" viewBox="0 0 24 24" fill="none" xmlns="http://www.w3.org/2000/svg">
<path fill-rule="evenodd" clip-rule="evenodd" d="M4.6847 19.195C5.3287 19.885 6.25637 20.23 7.4677 20.23C8.67903 20.23 9.59903 19.885 10.2277 19.195C10.8717 18.505 11.1937 17.5314 11.1937 16.274V13.997H8.8017V16.458C8.8017 17.4394 8.38003 17.93 7.5367 17.93C6.69337 17.93 6.2717 17.4394 6.2717 16.458V7.46504C6.2717 6.46838 6.69337 5.97004 7.5367 5.97004C8.38003 5.97004 8.8017 6.46838 8.8017 7.46504V9.32804H11.1937V7.62604C11.1937 6.36871 10.8717 5.39504 10.2277 4.70504C9.59903 4.01504 8.67903 3.67004 7.4677 3.67004C6.25637 3.67004 5.3287 4.01504 4.6847 4.70504C4.05603 5.39504 3.7417 6.36871 3.7417 7.62604V16.274C3.7417 17.5314 4.05603 18.505 4.6847 19.195ZM16.4565 3.90002H12.7075V20H15.2375V13.1H16.1115C16.6942 13.1 17.1005 13.2457 17.3305 13.537C17.5759 13.8284 17.6985 14.342 17.6985 15.078V18.022C17.6985 18.62 17.7139 19.034 17.7445 19.264C17.7752 19.494 17.8365 19.7394 17.9285 20H20.5045C20.3819 19.724 20.3052 19.448 20.2745 19.172C20.2439 18.8807 20.2285 18.505 20.2285 18.045V15.216C20.2285 14.2654 20.0982 13.5064 19.8375 12.939C19.5922 12.3717 19.1629 11.996 18.5495 11.812V11.766C19.6535 11.3214 20.2055 10.2634 20.2055 8.59202V7.60302C20.2055 6.34569 19.9065 5.41802 19.3085 4.82002C18.7105 4.20669 17.7599 3.90002 16.4565 3.90002ZM17.2845 10.409C17.0392 10.6697 16.6635 10.8 16.1575 10.8H15.2375V6.20002H16.3875C16.8322 6.20002 17.1542 6.33036 17.3535 6.59103C17.5682 6.85169 17.6755 7.27336 17.6755 7.85603V9.09803C17.6755 9.71136 17.5452 10.1484 17.2845 10.409Z" fill="white"/>
</svg>
