<svg width="24" height="24" viewBox="0 0 24 24" fill="none" xmlns="http://www.w3.org/2000/svg">
<path fill-rule="evenodd" clip-rule="evenodd" d="M4.70716 19.195C5.35116 19.885 6.27883 20.23 7.49016 20.23C8.70149 20.23 9.62149 19.885 10.2502 19.195C10.8942 18.505 11.2162 17.5314 11.2162 16.274V13.997H8.82416V16.458C8.82416 17.4394 8.40249 17.93 7.55916 17.93C6.71583 17.93 6.29416 17.4394 6.29416 16.458V7.46504C6.29416 6.46838 6.71583 5.97004 7.55916 5.97004C8.40249 5.97004 8.82416 6.46838 8.82416 7.46504V9.32804H11.2162V7.62604C11.2162 6.36871 10.8942 5.39504 10.2502 4.70504C9.62149 4.01504 8.70149 3.67004 7.49016 3.67004C6.27883 3.67004 5.35116 4.01504 4.70716 4.70504C4.07849 5.39504 3.76416 6.36871 3.76416 7.62604V16.274C3.76416 17.5314 4.07849 18.505 4.70716 19.195ZM18.112 3.90002H14.685L12.063 20H14.409L14.869 16.849H17.744V16.803L18.204 20H20.734L18.112 3.90002ZM16.318 6.70603L17.445 14.664H15.168L16.272 6.70603H16.318Z" fill="white"/>
</svg>
