<svg width="24" height="24" viewBox="0 0 24 24" fill="none" xmlns="http://www.w3.org/2000/svg">
<path fill-rule="evenodd" clip-rule="evenodd" d="M1.93861 19.195C2.56727 19.885 3.49494 20.23 4.72161 20.23C5.96361 20.23 6.90661 19.8774 7.55061 19.172C8.20994 18.4667 8.53961 17.4547 8.53961 16.136C8.53961 15.124 8.34027 14.2424 7.94161 13.491C7.54294 12.7397 6.81461 11.904 5.75661 10.984C4.92861 10.2634 4.35361 9.65004 4.03161 9.14404C3.72494 8.63804 3.57161 8.09371 3.57161 7.51104C3.57161 6.48371 3.99327 5.97004 4.83661 5.97004C5.25061 5.97004 5.56494 6.10038 5.77961 6.36104C5.99427 6.60638 6.10161 7.00504 6.10161 7.55704V8.38505H8.49361V7.71804C8.49361 6.41471 8.17927 5.41804 7.55061 4.72804C6.93727 4.02271 6.02494 3.67004 4.81361 3.67004C3.58694 3.67004 2.65161 4.02271 2.00761 4.72804C1.36361 5.41804 1.04161 6.39938 1.04161 7.67204C1.04161 8.60738 1.24861 9.45071 1.66261 10.202C2.07661 10.938 2.80494 11.766 3.84761 12.686C4.67561 13.4067 5.24294 14.0277 5.54961 14.549C5.85627 15.055 6.00961 15.6454 6.00961 16.32C6.00961 16.8874 5.89461 17.3014 5.66461 17.562C5.44994 17.8074 5.12794 17.93 4.69861 17.93C3.82461 17.93 3.38761 17.4087 3.38761 16.366V15.262H0.995605V16.182C0.995605 17.4854 1.30994 18.4897 1.93861 19.195ZM14.7949 3.90002H17.3249V10.455H20.0389V3.90002H22.5689V20H20.0389V12.755H17.3249V20H14.7949V3.90002ZM11.4474 20.1201C10.7994 20.1201 10.3034 19.9361 9.95936 19.5681C9.61536 19.2001 9.44336 18.6801 9.44336 18.0081V13.5921C9.44336 12.9201 9.61536 12.4001 9.95936 12.0321C10.3034 11.6641 10.7994 11.4801 11.4474 11.4801C12.0954 11.4801 12.5914 11.6641 12.9354 12.0321C13.2794 12.4001 13.4514 12.9201 13.4514 13.5921V18.0081C13.4514 18.6801 13.2794 19.2001 12.9354 19.5681C12.5914 19.9361 12.0954 20.1201 11.4474 20.1201ZM11.4474 18.9201C11.9034 18.9201 12.1314 18.6441 12.1314 18.0921V13.5081C12.1314 12.9561 11.9034 12.6801 11.4474 12.6801C10.9914 12.6801 10.7634 12.9561 10.7634 13.5081V18.0921C10.7634 18.6441 10.9914 18.9201 11.4474 18.9201Z" fill="white"/>
</svg>
