<svg width="25" height="24" viewBox="0 0 25 24" fill="none" xmlns="http://www.w3.org/2000/svg">
<path fill-rule="evenodd" clip-rule="evenodd" d="M2.57 19.195C3.214 19.885 4.14934 20.23 5.376 20.23C6.60267 20.23 7.538 19.885 8.182 19.195C8.826 18.4897 9.148 17.4854 9.148 16.182V3.90002H6.71V16.366C6.71 16.918 6.595 17.3167 6.365 17.562C6.15034 17.8074 5.836 17.93 5.422 17.93C5.008 17.93 4.686 17.8074 4.456 17.562C4.24134 17.3167 4.134 16.918 4.134 16.366V3.90002H1.604V16.182C1.604 17.4854 1.926 18.4897 2.57 19.195ZM10.9497 3.90002H13.4797V20H10.9497V3.90002ZM15.3745 3.90002H18.5485L21.0095 13.537H21.0555V3.90002H23.3095V20H20.7105L17.6745 8.24702H17.6285V20H15.3745V3.90002Z" fill="white"/>
</svg>
