<svg width="25" height="24" viewBox="0 0 25 24" fill="none" xmlns="http://www.w3.org/2000/svg">
<path fill-rule="evenodd" clip-rule="evenodd" d="M7.64597 3.90002H3.89697V20H6.42697V13.1H7.30097C7.88364 13.1 8.28997 13.2457 8.51997 13.537C8.76531 13.8284 8.88797 14.342 8.88797 15.078V18.022C8.88797 18.62 8.90331 19.034 8.93397 19.264C8.96464 19.494 9.02597 19.7394 9.11797 20H11.694C11.5713 19.724 11.4946 19.448 11.464 19.172C11.4333 18.8807 11.418 18.505 11.418 18.045V15.216C11.418 14.2654 11.2876 13.5064 11.027 12.939C10.7816 12.3717 10.3523 11.996 9.73897 11.812V11.766C10.843 11.3214 11.395 10.2634 11.395 8.59202V7.60302C11.395 6.34569 11.096 5.41802 10.498 4.82002C9.89997 4.20669 8.94931 3.90002 7.64597 3.90002ZM8.47397 10.409C8.22864 10.6697 7.85297 10.8 7.34697 10.8H6.42697V6.20002H7.57697C8.02164 6.20002 8.34364 6.33036 8.54297 6.59103C8.75764 6.85169 8.86497 7.27336 8.86497 7.85603V9.09803C8.86497 9.71136 8.73464 10.1484 8.47397 10.409ZM16.3473 3.90002H13.1733V20H15.4273V8.24702H15.4733L18.5093 20H21.1083V3.90002H18.8543V13.537H18.8083L16.3473 3.90002Z" fill="white"/>
</svg>
