<svg width="24" height="24" viewBox="0 0 24 24" fill="none" xmlns="http://www.w3.org/2000/svg">
<path fill-rule="evenodd" clip-rule="evenodd" d="M5.71647 3.90002H2.10547V20H4.31347V7.81002H4.35947L6.19947 20H8.31547L10.1555 7.81002H10.2015V20H12.5935V3.90002H8.98247L7.37247 15.423H7.32647L5.71647 3.90002ZM18.2994 3.90002H14.4814V20H18.4604C19.7178 20 20.6684 19.678 21.3124 19.034C21.9718 18.3747 22.3014 17.424 22.3014 16.182V14.802C22.3014 12.9927 21.6728 11.8734 20.4154 11.444V11.398C20.9674 11.168 21.3738 10.7924 21.6344 10.271C21.9104 9.74969 22.0484 9.07502 22.0484 8.24702V7.60302C22.0484 6.34569 21.7494 5.41802 21.1514 4.82002C20.5534 4.20669 19.6028 3.90002 18.2994 3.90002ZM19.1274 10.064C18.8821 10.3247 18.5064 10.455 18.0004 10.455H17.0114V6.20002H18.2304C18.6751 6.20002 18.9971 6.33036 19.1964 6.59103C19.4111 6.85169 19.5184 7.27336 19.5184 7.85603V8.75303C19.5184 9.36636 19.3881 9.80336 19.1274 10.064ZM19.4494 17.355C19.2348 17.585 18.9051 17.7 18.4604 17.7H17.0114V12.755H18.1384C18.7211 12.755 19.1351 12.9007 19.3804 13.192C19.6411 13.468 19.7714 13.974 19.7714 14.71V16.113C19.7714 16.6957 19.6641 17.1097 19.4494 17.355Z" fill="white"/>
</svg>
