<svg width="24" height="24" viewBox="0 0 24 24" fill="none" xmlns="http://www.w3.org/2000/svg">
<path fill-rule="evenodd" clip-rule="evenodd" d="M5.83147 3.90002H2.10547V20H4.63547V13.445H5.83147C7.0888 13.445 8.0318 13.1077 8.66047 12.433C9.28914 11.7584 9.60347 10.7694 9.60347 9.46603V7.87903C9.60347 6.57569 9.28914 5.58669 8.66047 4.91203C8.0318 4.23736 7.0888 3.90002 5.83147 3.90002ZM6.75147 10.8C6.55213 11.03 6.24547 11.145 5.83147 11.145H4.63547V6.20002H5.83147C6.24547 6.20002 6.55213 6.31502 6.75147 6.54502C6.96614 6.77502 7.07347 7.16602 7.07347 7.71802V9.62702C7.07347 10.179 6.96614 10.57 6.75147 10.8ZM12.8174 3.90002H10.3794L12.0124 20H15.3704L16.5204 9.14402H16.5664L17.7164 20H20.8674L22.5004 3.90002H20.3154L19.1884 16.274H19.1424L17.9464 3.90002H15.1864L13.9904 16.274H13.9444L12.8174 3.90002Z" fill="white"/>
</svg>
