<svg width="24" height="24" viewBox="0 0 24 24" fill="none" xmlns="http://www.w3.org/2000/svg">
<path fill-rule="evenodd" clip-rule="evenodd" d="M2.36536 19.195C2.99403 19.885 3.9217 20.23 5.14836 20.23C6.39036 20.23 7.33336 19.8774 7.97736 19.172C8.6367 18.4667 8.96636 17.4547 8.96636 16.136C8.96636 15.124 8.76703 14.2424 8.36836 13.491C7.9697 12.7397 7.24136 11.904 6.18336 10.984C5.35536 10.2634 4.78036 9.65004 4.45836 9.14404C4.1517 8.63804 3.99836 8.09371 3.99836 7.51104C3.99836 6.48371 4.42003 5.97004 5.26336 5.97004C5.67736 5.97004 5.9917 6.10038 6.20636 6.36104C6.42103 6.60638 6.52836 7.00504 6.52836 7.55704V8.38505H8.92036V7.71804C8.92036 6.41471 8.60603 5.41804 7.97736 4.72804C7.36403 4.02271 6.4517 3.67004 5.24036 3.67004C4.0137 3.67004 3.07836 4.02271 2.43436 4.72804C1.79036 5.41804 1.46836 6.39938 1.46836 7.67204C1.46836 8.60738 1.67536 9.45071 2.08936 10.202C2.50336 10.938 3.2317 11.766 4.27436 12.686C5.10236 13.4067 5.6697 14.0277 5.97636 14.549C6.28303 15.055 6.43636 15.6454 6.43636 16.32C6.43636 16.8874 6.32136 17.3014 6.09136 17.562C5.8767 17.8074 5.5547 17.93 5.12536 17.93C4.25136 17.93 3.81436 17.4087 3.81436 16.366V15.262H1.42236V16.182C1.42236 17.4854 1.7367 18.4897 2.36536 19.195ZM18.7865 20.23C17.5752 20.23 16.6475 19.885 16.0035 19.195C15.3749 18.505 15.0605 17.5314 15.0605 16.274V7.62604C15.0605 6.36871 15.3749 5.39504 16.0035 4.70504C16.6475 4.01504 17.5752 3.67004 18.7865 3.67004C19.9979 3.67004 20.9179 4.01504 21.5465 4.70504C22.1905 5.39504 22.5125 6.36871 22.5125 7.62604V9.32804H20.1205V7.46504C20.1205 6.46838 19.6989 5.97004 18.8555 5.97004C18.0122 5.97004 17.5905 6.46838 17.5905 7.46504V16.458C17.5905 17.4394 18.0122 17.93 18.8555 17.93C19.6989 17.93 20.1205 17.4394 20.1205 16.458V13.997H22.5125V16.274C22.5125 17.5314 22.1905 18.505 21.5465 19.195C20.9179 19.885 19.9979 20.23 18.7865 20.23ZM11.8741 20.1201C11.2261 20.1201 10.7301 19.9361 10.3861 19.5681C10.0421 19.2001 9.87012 18.6801 9.87012 18.0081V13.5921C9.87012 12.9201 10.0421 12.4001 10.3861 12.0321C10.7301 11.6641 11.2261 11.4801 11.8741 11.4801C12.5221 11.4801 13.0181 11.6641 13.3621 12.0321C13.7061 12.4001 13.8781 12.9201 13.8781 13.5921V18.0081C13.8781 18.6801 13.7061 19.2001 13.3621 19.5681C13.0181 19.9361 12.5221 20.1201 11.8741 20.1201ZM11.8741 18.9201C12.3301 18.9201 12.5581 18.6441 12.5581 18.0921V13.5081C12.5581 12.9561 12.3301 12.6801 11.8741 12.6801C11.4181 12.6801 11.1901 12.9561 11.1901 13.5081V18.0921C11.1901 18.6441 11.4181 18.9201 11.8741 18.9201Z" fill="white"/>
</svg>
