<svg width="24" height="24" viewBox="0 0 24 24" fill="none" xmlns="http://www.w3.org/2000/svg">
<path fill-rule="evenodd" clip-rule="evenodd" d="M6.97772 19.195C7.62172 19.885 8.55705 20.23 9.78372 20.23C11.0104 20.23 11.9457 19.885 12.5897 19.195C13.2337 18.4897 13.5557 17.4854 13.5557 16.182V3.90002H11.1177V16.366C11.1177 16.918 11.0027 17.3167 10.7727 17.562C10.5581 17.8074 10.2437 17.93 9.82972 17.93C9.41572 17.93 9.09372 17.8074 8.86372 17.562C8.64905 17.3167 8.54172 16.918 8.54172 16.366V3.90002H6.01172V16.182C6.01172 17.4854 6.33372 18.4897 6.97772 19.195ZM17.8874 3.90002H15.3574V20H17.8874V3.90002Z" fill="white"/>
</svg>
