<svg width="24" height="24" viewBox="0 0 24 24" fill="none" xmlns="http://www.w3.org/2000/svg">
<path fill-rule="evenodd" clip-rule="evenodd" d="M4.73402 19.195C5.36268 19.885 6.29035 20.23 7.51702 20.23C8.75902 20.23 9.70202 19.8774 10.346 19.172C11.0053 18.4667 11.335 17.4547 11.335 16.136C11.335 15.124 11.1357 14.2424 10.737 13.491C10.3383 12.7397 9.61002 11.904 8.55202 10.984C7.72402 10.2634 7.14902 9.65004 6.82702 9.14404C6.52035 8.63804 6.36702 8.09371 6.36702 7.51104C6.36702 6.48371 6.78868 5.97004 7.63202 5.97004C8.04602 5.97004 8.36035 6.10038 8.57502 6.36104C8.78968 6.60638 8.89702 7.00504 8.89702 7.55704V8.38505H11.289V7.71804C11.289 6.41471 10.9747 5.41804 10.346 4.72804C9.73268 4.02271 8.82035 3.67004 7.60902 3.67004C6.38235 3.67004 5.44702 4.02271 4.80302 4.72804C4.15902 5.41804 3.83702 6.39938 3.83702 7.67204C3.83702 8.60738 4.04402 9.45071 4.45802 10.202C4.87202 10.938 5.60035 11.766 6.64302 12.686C7.47102 13.4067 8.03835 14.0277 8.34502 14.549C8.65168 15.055 8.80502 15.6454 8.80502 16.32C8.80502 16.8874 8.69002 17.3014 8.46002 17.562C8.24535 17.8074 7.92335 17.93 7.49402 17.93C6.62002 17.93 6.18302 17.4087 6.18302 16.366V15.262H3.79102V16.182C3.79102 17.4854 4.10535 18.4897 4.73402 19.195ZM16.5116 3.90002H12.7856V20H15.3156V13.445H16.5116C17.769 13.445 18.712 13.1077 19.3406 12.433C19.9693 11.7584 20.2836 10.7694 20.2836 9.46603V7.87903C20.2836 6.57569 19.9693 5.58669 19.3406 4.91203C18.712 4.23736 17.769 3.90002 16.5116 3.90002ZM17.4316 10.8C17.2323 11.03 16.9256 11.145 16.5116 11.145H15.3156V6.20002H16.5116C16.9256 6.20002 17.2323 6.31502 17.4316 6.54502C17.6463 6.77502 17.7536 7.16602 17.7536 7.71802V9.62702C17.7536 10.179 17.6463 10.57 17.4316 10.8Z" fill="white"/>
</svg>
