<svg width="24" height="24" viewBox="0 0 24 24" fill="none" xmlns="http://www.w3.org/2000/svg">
<path fill-rule="evenodd" clip-rule="evenodd" d="M16.1292 7.52881C16.2506 7.53658 16.3715 7.55099 16.4912 7.57208C18.5243 7.92997 20 9.6902 20 11.7575V12.9718C20 13.3071 19.7282 13.5789 19.3929 13.5789H18.1786C17.1912 13.5789 16.3571 14.4501 16.3571 15.4813V19.1257C17.0941 19.68 17.5714 20.5617 17.5714 21.5528C17.5714 21.8881 17.2996 22.1595 16.9643 22.1595H11.1018C9.51606 22.1595 8.01476 21.5148 6.94424 20.4151C6.51961 20.7546 5.98783 20.9457 5.42857 20.9457C4.08946 20.9457 3 19.8562 3 18.5171C3 17.178 4.08946 16.0885 5.42857 16.0885C5.43537 16.0885 5.44215 16.0887 5.44892 16.0889C5.45375 16.089 5.45858 16.0892 5.46342 16.0892C5.77428 13.2894 8.12416 11.1504 10.8929 11.1504H11.9769C12.435 11.1504 12.6971 10.756 12.7193 10.3664L12.7199 10.3585C12.7351 10.1416 12.7715 9.93253 12.829 9.73213C11.7841 9.47199 10.7985 9.02376 9.88366 8.41625C8.53593 7.52298 7.27862 6.2069 6.68479 4.69361C6.6123 4.5088 6.63468 4.30023 6.74482 4.13504C6.85495 3.96986 7.03888 3.86895 7.23733 3.86482C8.47663 3.83876 9.71018 4.20624 10.7948 4.74316C10.4634 3.87397 10.2667 2.94953 10.2858 2.0306C10.29 1.83211 10.3909 1.64818 10.5561 1.53809C10.7212 1.42795 10.9298 1.40553 11.1147 1.47806C12.6329 2.07387 13.9476 3.33454 14.8375 4.67734C15.4683 5.6272 15.8786 6.57357 16.1292 7.52881ZM4.21429 18.517C4.21429 19.1866 4.75901 19.7313 5.42857 19.7313C5.71356 19.7313 5.98415 19.6317 6.19851 19.4557C5.79897 18.8016 5.54628 18.0707 5.46209 17.3042C5.45748 17.304 5.45288 17.3038 5.44828 17.3035C5.44173 17.3031 5.43518 17.3028 5.42857 17.3028C4.75901 17.3028 4.21429 17.8475 4.21429 18.517ZM18.1786 12.3647H18.7857H18.7858V11.7575C18.7858 10.2807 17.7322 9.02343 16.2807 8.76791C16.0923 8.73476 15.8993 8.72767 15.7066 8.74678C15.3939 8.77811 15.1091 8.56512 15.0502 8.25637C14.8529 7.22236 14.3986 6.21139 13.8257 5.34856C13.2496 4.47941 12.4648 3.64698 11.582 3.07691C11.8362 4.48509 12.5281 5.56689 12.78 5.96077C12.8121 6.01089 12.837 6.04987 12.853 6.07697C13.2222 6.62769 12.5606 7.2881 12.0106 6.91936L11.228 6.39467C10.3662 5.81675 9.32137 5.34823 8.2836 5.16095C8.85666 6.04835 9.69181 6.83229 10.5549 7.40434C11.4925 8.02687 12.6443 8.53112 13.7764 8.67959C14.2217 8.73795 14.451 9.24346 14.2037 9.61681C14.0428 9.85975 13.9537 10.1291 13.9314 10.4401C13.8665 11.5375 13.027 12.3647 11.9769 12.3647H10.8929C8.42288 12.3647 6.41979 14.5652 6.66297 17.1151C6.86782 19.2631 8.81756 20.9456 11.1018 20.9456H16.2531C16.0025 20.2389 15.3273 19.7313 14.5357 19.7313H10.9039L10.9002 19.7312L10.8929 19.7313C10.5576 19.7313 10.2857 19.4595 10.2857 19.1242C10.2857 18.7889 10.5576 18.517 10.8929 18.517C11.5624 18.517 12.1071 17.9723 12.1071 17.3028C12.1071 16.6332 11.5624 16.0885 10.8929 16.0885C10.5576 16.0885 10.2857 15.8166 10.2857 15.4813C10.2857 15.146 10.5576 14.8742 10.8929 14.8742C12.232 14.8742 13.3214 15.9636 13.3214 17.3028C13.3214 17.745 13.2021 18.1595 12.9947 18.517H14.5357C14.7436 18.517 14.9466 18.538 15.1429 18.578V15.4813C15.1429 13.7991 16.5036 12.3647 18.1786 12.3647ZM15.7213 10.1101C15.8344 9.99701 15.9906 9.93234 16.1504 9.93234C16.3103 9.93234 16.467 9.99701 16.5799 10.1101C16.6927 10.2233 16.7576 10.3796 16.7576 10.5395C16.7576 10.6993 16.6927 10.856 16.5799 10.9689C16.467 11.0818 16.3103 11.1466 16.1504 11.1466C15.9909 11.1466 15.8344 11.0818 15.7213 10.9689C15.608 10.856 15.5433 10.6993 15.5433 10.5395C15.5433 10.3796 15.608 10.2233 15.7213 10.1101Z" fill="white"/>
</svg>
