<svg width="24" height="24" viewBox="0 0 24 24" fill="none" xmlns="http://www.w3.org/2000/svg">
<path fill-rule="evenodd" clip-rule="evenodd" d="M19 5V11.0709C19.7061 11.1719 20.3783 11.3783 21 11.6736V5C21 3.9 20.1 3 19 3H5C3.9 3 3 3.9 3 5V19C3 20.1 3.9 21 5 21H11.6736C11.3783 20.3783 11.1719 19.7061 11.0709 19H5V5H19ZM17 11V11.0709C15.4919 11.2866 14.1388 11.983 13.101 13H7V11H17ZM7 15H11.6736C11.3783 15.6217 11.1719 16.2939 11.0709 17H7V15ZM17 9H7V7H17V9ZM13 18C13 15.24 15.24 13 18 13C20.76 13 23 15.24 23 18C23 20.76 20.76 23 18 23C15.24 23 13 20.76 13 18ZM17.5 20V21H18.5V20H17.5ZM17.5 19H18.5V15H17.5V19Z" fill="white"/>
</svg>
