<svg width="24" height="24" viewBox="0 0 24 24" fill="none" xmlns="http://www.w3.org/2000/svg">
<path fill-rule="evenodd" clip-rule="evenodd" d="M7.1771 3C6.35929 3 5.62387 3.4979 5.32014 4.25722L4.62303 6H3.07971C1.91469 6 0.996247 6.99181 1.0856 8.15339L1.93175 19.1534C2.01191 20.1954 2.88079 21 3.92586 21H17.9048C19.0809 21 20.0031 19.9902 19.8966 18.8189L19.8221 18H20.1272C21.1273 18 21.9737 17.2612 22.1088 16.2702L23.3361 7.27023C23.4999 6.06937 22.5664 5 21.3544 5H13.9143L11.9143 3H7.1771ZM19.6403 16H20.1272L21.3544 7H13.0858L11.0858 5H7.1771L6.7771 6H7.91404L9.91404 8H17.0866C18.121 8 18.9848 8.78877 19.0784 9.81893L19.6403 16ZM3.07971 8L7.08562 8L9.08562 10H17.0866L17.9048 19L3.92586 19L3.07971 8Z" fill="white"/>
</svg>
