<svg width="24" height="24" viewBox="0 0 24 24" fill="none" xmlns="http://www.w3.org/2000/svg">
<path fill-rule="evenodd" clip-rule="evenodd" d="M5 3H19C20.1 3 21 3.9 21 5V19C21 20.1 20.1 21 19 21H5C3.9 21 3 20.1 3 19V5C3 3.9 3.9 3 5 3ZM5 19H19V5H5V19ZM8.08344 10.339H9.98044L10.1204 9.198H6.64844V14H8.08344V12.201H9.84744V11.123H8.08344V10.339ZM14.7931 14H16.4591L17.7611 9.198H16.3821L15.7031 11.865H15.6751L15.0031 9.198H13.4981L12.8121 11.865H12.7841L12.1051 9.198H10.5861L11.8951 14H13.5891L14.1701 11.697H14.2121L14.7931 14Z" fill="white"/>
</svg>
