<svg width="24" height="24" viewBox="0 0 24 24" fill="none" xmlns="http://www.w3.org/2000/svg">
<path fill-rule="evenodd" clip-rule="evenodd" d="M10.55 19.855L12 21.175L13.45 19.865L13.4895 19.8291C16.4237 17.1627 18.7866 15.0155 20.2711 12.96H16C15.62 12.96 15.28 12.75 15.11 12.41L14 10.2L10.89 16.41C10.72 16.75 10.38 16.96 10 16.96C9.62 16.96 9.28 16.75 9.1 16.41L7.38 12.96H3.72942C5.21855 15.0205 7.59101 17.1718 10.5373 19.8435L10.55 19.855ZM2.56587 10.96C2.19625 10.1009 2 9.23316 2 8.32501C2 5.24501 4.42 2.82501 7.5 2.82501C9.24 2.82501 10.91 3.63501 12 4.91501C13.09 3.63501 14.76 2.82501 16.5 2.82501C19.58 2.82501 22 5.24501 22 8.32501C22 9.23311 21.8038 10.1008 21.4342 10.96H16.62L14.89 7.51C14.55 6.83 13.44 6.83 13.1 7.51L10 13.72L8.89 11.51C8.72 11.17 8.38 10.96 8 10.96H2.56587Z" fill="white"/>
</svg>
