<svg width="24" height="24" viewBox="0 0 24 24" fill="none" xmlns="http://www.w3.org/2000/svg">
<path fill-rule="evenodd" clip-rule="evenodd" d="M1.6409 3.652L1.64645 3.64645L2.35355 4.35356C1.85973 4.84738 1.5 5.22689 1.5 6.00001C1.5 6.3777 1.58388 6.54605 1.6934 6.76587L1.69755 6.77421C1.83665 7.05347 2 7.38715 2 8.00001H1C1 7.61662 0.915018 7.44603 0.80566 7.22651L0.802446 7.22006C0.663993 6.94209 0.5 6.6099 0.5 6.00001C0.5 4.79286 1.1356 4.15728 1.6409 3.652ZM4 9V11H0V9H4ZM5 10.75C5.64616 10.75 6.21677 11.1714 6.40679 11.789L8.02378 17.0442C8.33575 18.0581 9.27252 18.75 10.3333 18.75H11V21H13V18.75H13.6667C14.7275 18.75 15.6643 18.0581 15.9762 17.0442L17.5932 11.789C17.7832 11.1714 18.3538 10.75 19 10.75V9.25C17.6953 9.25 16.5432 10.1009 16.1595 11.3479L15.9589 12H8.04111L7.84046 11.3479C7.45678 10.1009 6.30467 9.25 5 9.25V10.75ZM8.6565 14H15.3435L14.5426 16.6031C14.4242 16.9876 14.069 17.25 13.6667 17.25H12H10.3333C9.93102 17.25 9.57576 16.9876 9.45745 16.6031L8.6565 14ZM24 11V9H20V11H24ZM18.6464 3.64645L18.6409 3.652V3.65201V3.65201V3.65201C18.1356 4.15728 17.5 4.79287 17.5 6.00001C17.5 6.6099 17.664 6.94209 17.8024 7.22006L17.8057 7.22651C17.915 7.44603 18 7.61662 18 8.00001H19C19 7.38715 18.8367 7.05347 18.6976 6.77421L18.6934 6.76587C18.5839 6.54605 18.5 6.3777 18.5 6.00001C18.5 5.22689 18.8597 4.84738 19.3536 4.35356L18.6464 3.64645ZM3.6409 3.652L3.64645 3.64645L4.35355 4.35356C3.85973 4.84738 3.5 5.22689 3.5 6.00001C3.5 6.3777 3.58388 6.54605 3.6934 6.76587L3.69755 6.77421C3.83665 7.05347 4 7.38715 4 8.00001H3C3 7.61662 2.91502 7.44603 2.80566 7.22651L2.80245 7.22006C2.66399 6.94209 2.5 6.6099 2.5 6.00001C2.5 4.79286 3.1356 4.15728 3.6409 3.652ZM20.6464 3.64645L20.6409 3.652V3.65201V3.65201C20.1356 4.15728 19.5 4.79287 19.5 6.00001C19.5 6.6099 19.664 6.94209 19.8024 7.22006L19.8057 7.22651C19.915 7.44603 20 7.61662 20 8.00001H21C21 7.38715 20.8367 7.05347 20.6976 6.77421L20.6934 6.76587C20.5839 6.54605 20.5 6.3777 20.5 6.00001C20.5 5.22689 20.8597 4.84738 21.3536 4.35356L20.6464 3.64645ZM5.6409 3.652L5.64645 3.64645L6.35355 4.35356C5.85973 4.84738 5.5 5.22689 5.5 6.00001C5.5 6.3777 5.58388 6.54605 5.6934 6.76587L5.69755 6.77421C5.83665 7.05347 6 7.38715 6 8.00001H5C5 7.61662 4.91502 7.44603 4.80566 7.22651L4.80245 7.22006C4.66399 6.94209 4.5 6.6099 4.5 6.00001C4.5 4.79286 5.1356 4.15728 5.64089 3.652L5.6409 3.652ZM22.6464 3.64645L22.6409 3.652V3.65201C22.1356 4.15728 21.5 4.79286 21.5 6.00001C21.5 6.6099 21.664 6.94209 21.8024 7.22006L21.8057 7.22651C21.915 7.44603 22 7.61662 22 8.00001H23C23 7.38715 22.8367 7.05347 22.6976 6.77421L22.6934 6.76587C22.5839 6.54605 22.5 6.3777 22.5 6.00001C22.5 5.22689 22.8597 4.84738 23.3536 4.35356L22.6464 3.64645Z" fill="white"/>
</svg>
