<svg width="24" height="24" viewBox="0 0 24 24" fill="none" xmlns="http://www.w3.org/2000/svg">
<path fill-rule="evenodd" clip-rule="evenodd" d="M13.0093 3.43168C12.3858 3.06721 11.6142 3.06721 10.9907 3.43168L3.9088 7.57134C2.6173 8.32628 2.58143 10.18 3.84276 10.9843L5.17277 11.8324L3.90868 12.5713C2.61718 13.3263 2.58131 15.18 3.84264 15.9843L10.9246 20.5003C11.5804 20.9186 12.4193 20.9186 13.0752 20.5003L20.1571 15.9843C21.4185 15.18 21.3826 13.3263 20.0911 12.5713L18.8271 11.8325L20.1572 10.9843C21.4186 10.18 21.3827 8.32628 20.0912 7.57134L13.0093 3.43168ZM12.0394 15.8136C12.3999 15.8065 12.7589 15.7021 13.0753 15.5003L16.9317 13.0412L19.0818 14.298L11.9999 18.814L5.21613 14.4881L7.06813 13.0411L10.9246 15.5003C11.264 15.7168 11.6526 15.8212 12.0394 15.8136ZM5.21613 14.4881L4.91798 14.298L4.38031 15.1412L5.21613 14.4881ZM16.8864 10.6981L19.0819 9.29799L12 5.15833L12.5047 4.295L12 5.15833L4.91809 9.29799L3.9088 7.57134L4.91809 9.29799L11.9999 13.814L16.3713 11.0264L16.8863 10.698L16.8864 10.6981Z" fill="white"/>
</svg>
