<svg width="24" height="24" viewBox="0 0 24 24" fill="none" xmlns="http://www.w3.org/2000/svg">
<path d="M20.3333 4.14286H18.6667V3.42857C18.6667 2.64071 17.9192 2 17 2H7C6.08083 2 5.33333 2.64071 5.33333 3.42857V4.14286H3.66667C2.7475 4.14286 2 4.78357 2 5.57143V7.71429C2 9.50214 3.545 10.9736 5.5475 11.2321C6.06583 13.0129 7.545 14.47 9.5 15.1507V18.4286C8.12167 18.4286 7 19.39 7 20.5714V21.2857C7 21.68 7.37333 22 7.83333 22H16.1667C16.6267 22 17 21.68 17 21.2857V20.5714C17 19.39 15.8783 18.4286 14.5 18.4286V15.1507C16.455 14.47 17.9342 13.0129 18.4525 11.2321C20.455 10.9736 22 9.50214 22 7.71429V5.57143C22 4.78357 21.2525 4.14286 20.3333 4.14286ZM3.66667 7.71429V5.57143H5.33333V9.735C4.36333 9.44 3.66667 8.64571 3.66667 7.71429ZM15.3333 20.5714H8.66667C8.66667 20.1779 9.04083 19.8571 9.5 19.8571H14.5C14.9592 19.8571 15.3333 20.1779 15.3333 20.5714ZM11.1667 18.4286V15.5714H12.8333V18.4286H11.1667ZM17 9.85714C17 12.2207 14.7575 14.1429 12 14.1429C9.2425 14.1429 7 12.2207 7 9.85714V3.42857H17V9.85714ZM20.3333 7.71429C20.3333 8.64571 19.6367 9.44 18.6667 9.735V5.57143H20.3333V7.71429Z" fill="white"/>
</svg>
