<svg width="24" height="24" viewBox="0 0 24 24" fill="none" xmlns="http://www.w3.org/2000/svg">
<path fill-rule="evenodd" clip-rule="evenodd" d="M14.2871 5.70914H9.71197C8.92275 5.70914 8.28223 6.34966 8.28223 7.13888V11.5L3 11.5V12.5L8.28223 12.5V16.8611C8.28223 17.6503 8.92275 18.2908 9.71197 18.2908H14.2871C15.0763 18.2908 15.7169 17.6503 15.7169 16.8611V12.5H21V11.5H15.7169V7.13888C15.7169 6.34966 15.0763 5.70914 14.2871 5.70914ZM11.9995 17.7189C11.5249 17.7189 11.1417 17.3358 11.1417 16.8611C11.1417 16.3864 11.5249 16.0033 11.9995 16.0033C12.4742 16.0033 12.8574 16.3864 12.8574 16.8611C12.8574 17.3358 12.4742 17.7189 11.9995 17.7189ZM14.5731 15.4314H9.42602V7.42482H14.5731V15.4314Z" fill="white"/>
<circle cx="12" cy="12" r="9.5" stroke="white"/>
</svg>
