<svg width="24" height="24" viewBox="0 0 24 24" fill="none" xmlns="http://www.w3.org/2000/svg">
<path opacity="0.5" fill-rule="evenodd" clip-rule="evenodd" d="M12 3C11.4477 3 11 3.44772 11 4V6C11 6.55228 11.4477 7 12 7C12.5523 7 13 6.55228 13 6V4C13 3.44772 12.5523 3 12 3ZM12 17C11.4477 17 11 17.4477 11 18V20C11 20.5523 11.4477 21 12 21C12.5523 21 13 20.5523 13 20V18C13 17.4477 12.5523 17 12 17ZM15.1338 4.57177C15.4099 4.09348 16.0215 3.92961 16.4998 4.20575C16.9781 4.48189 17.142 5.09348 16.8658 5.57177L15.8658 7.30383C15.5897 7.78212 14.9781 7.94599 14.4998 7.66985C14.0215 7.39371 13.8576 6.78212 14.1338 6.30383L15.1338 4.57177ZM9.49981 16.3301C9.02152 16.054 8.40993 16.2178 8.13379 16.6961L7.13379 18.4282C6.85765 18.9065 7.02152 19.5181 7.49981 19.7942C7.97811 20.0703 8.5897 19.9065 8.86584 19.4282L9.86584 17.6961C10.142 17.2178 9.97811 16.6062 9.49981 16.3301ZM18.4279 7.13397C18.9062 6.85783 19.5178 7.02171 19.7939 7.5C20.0701 7.97829 19.9062 8.58988 19.4279 8.86602L17.6959 9.86602C17.2176 10.1422 16.606 9.97829 16.3298 9.5C16.0537 9.0217 16.2176 8.41011 16.6959 8.13397L18.4279 7.13397ZM7.66959 14.5C7.39345 14.0217 6.78186 13.8578 6.30356 14.134L4.57151 15.134C4.09322 15.4101 3.92935 16.0217 4.20549 16.5C4.48163 16.9783 5.09322 17.1422 5.57151 16.866L7.30356 15.866C7.78186 15.5899 7.94573 14.9783 7.66959 14.5ZM19.9995 11C20.5518 11 20.9995 11.4477 20.9995 12C20.9995 12.5523 20.5518 13 19.9995 13H17.9995C17.4472 13 16.9995 12.5523 16.9995 12C16.9995 11.4477 17.4472 11 17.9995 11H19.9995ZM6.99951 12C6.99951 11.4477 6.5518 11 5.99951 11L3.99951 11C3.44723 11 2.99951 11.4477 2.99951 12C2.99951 12.5523 3.44723 13 3.99951 13H5.99951C6.5518 13 6.99951 12.5523 6.99951 12ZM19.4279 15.134C19.9062 15.4101 20.0701 16.0217 19.7939 16.5C19.5178 16.9783 18.9062 17.1422 18.4279 16.866L16.6959 15.866C16.2176 15.5899 16.0537 14.9783 16.3298 14.5C16.606 14.0217 17.2176 13.8578 17.6959 14.134L19.4279 15.134ZM7.66959 9.5C7.94573 9.0217 7.78186 8.41011 7.30356 8.13397L5.57151 7.13397C5.09322 6.85783 4.48163 7.0217 4.20549 7.5C3.92935 7.97829 4.09322 8.58988 4.57151 8.86602L6.30356 9.86602C6.78186 10.1422 7.39345 9.97829 7.66959 9.5ZM16.8657 18.4282C17.1419 18.9065 16.978 19.5181 16.4997 19.7943C16.0214 20.0704 15.4098 19.9065 15.1337 19.4282L14.1337 17.6962C13.8575 17.2179 14.0214 16.6063 14.4997 16.3301C14.978 16.054 15.5896 16.2179 15.8657 16.6962L16.8657 18.4282ZM9.4997 7.6699C9.97799 7.39375 10.1419 6.78216 9.86572 6.30387L8.86572 4.57182C8.58958 4.09353 7.97799 3.92965 7.4997 4.20579C7.0214 4.48194 6.85753 5.09353 7.13367 5.57182L8.13367 7.30387C8.40981 7.78216 9.0214 7.94604 9.4997 7.6699Z" fill="white"/>
</svg>
