<svg width="24" height="24" viewBox="0 0 24 24" fill="none" xmlns="http://www.w3.org/2000/svg">
<path d="M12.4731 3.24689C10.4631 1.23689 7.45306 0.826891 5.03306 2.00689L8.66306 5.63689C9.05306 6.02689 9.05306 6.65689 8.66306 7.04689L7.07306 8.63689C6.68306 9.03689 6.05306 9.03689 5.66306 8.63689L2.03306 5.00689C0.86306 7.43689 1.27306 10.4269 3.28306 12.4369C5.14306 14.2969 7.86306 14.7869 10.1731 13.9169L18.1331 21.8769C19.1631 22.9069 20.8231 22.9069 21.8431 21.8769C22.8731 20.8469 22.8731 19.1869 21.8431 18.1669L13.9231 10.2369C14.8431 7.89689 14.3631 5.13689 12.4731 3.24689Z" fill="white"/>
</svg>
