<svg width="24" height="24" viewBox="0 0 24 24" fill="none" xmlns="http://www.w3.org/2000/svg">
<path fill-rule="evenodd" clip-rule="evenodd" d="M4.0392 11.0561C4.23904 9.34803 4.98397 7.74984 6.16354 6.49844C7.34311 5.24705 8.89453 4.40906 10.5878 4.10871C12.2811 3.80837 14.0261 4.06165 15.5641 4.83102L17.4141 3.60102C15.5305 2.39323 13.2964 1.85202 11.0689 2.06395C8.84151 2.27588 6.7495 3.22871 5.12755 4.77003C3.5056 6.31134 2.44742 8.35209 2.12228 10.5658C1.83831 12.4992 2.1278 14.467 2.94529 16.2285L4.57457 15C4.06892 13.7569 3.88189 12.4006 4.0392 11.0561ZM11.223 13.8251C10.9802 13.7245 10.7596 13.577 10.5739 13.391C10.3879 13.2053 10.2404 12.9847 10.1398 12.7419C10.0391 12.4991 9.9873 12.2388 9.9873 11.976C9.9873 11.7132 10.0391 11.4529 10.1398 11.2101C10.2404 10.9673 10.3879 10.7467 10.5739 10.561L19.0639 4.901L13.4039 13.391C13.2181 13.577 12.9976 13.7245 12.7548 13.8251C12.512 13.9258 12.2517 13.9776 11.9889 13.9776C11.726 13.9776 11.4658 13.9258 11.223 13.8251ZM4.89014 21V16.1H5.63914L7.58352 19.347L9.49614 16.1H10.2451L10.2521 21H9.39114L9.38473 17.7536L7.77414 20.44H7.36814L5.75814 17.7959V21H4.89014ZM10.8827 21L13.0877 16.1H13.9837L16.1122 20.815L17.7952 18.4987L16.0758 16.1H17.1048L18.3589 17.8402L19.5968 16.1H20.5838L18.8694 18.4656L20.7098 21H19.6598L18.3277 19.1351L17.0138 21H16.1957H15.9778H15.2437L14.7567 19.866H12.3059L11.8207 21H10.8827ZM13.529 17.0075L14.45 19.152H12.6114L13.529 17.0075ZM19.1343 8.40102L20.3643 6.55101L20.3743 6.54102C21.3769 8.08733 21.9328 9.88065 21.9804 11.723C22.0207 13.2816 21.696 14.824 21.0371 16.2285L19.3936 15C19.7522 14.118 19.9517 13.1763 19.9795 12.2187C20.0179 10.8958 19.7275 9.58409 19.1343 8.40102Z" fill="white"/>
</svg>
