<svg width="24" height="24" viewBox="0 0 24 24" fill="none" xmlns="http://www.w3.org/2000/svg">
<path fill-rule="evenodd" clip-rule="evenodd" d="M16.2811 9.28441H19.5941C21.4721 9.28441 23 10.8123 23 12.6904C23 14.5684 21.4721 16.0963 19.5941 16.0963H16.5246C16.6918 16.4207 16.7868 16.7883 16.7868 17.1777V18.9037C16.7868 19.2595 16.4981 19.5482 16.1423 19.5482H12.6904C12.3344 19.5482 12.0458 19.2595 12.0458 18.9037V16.0963H6.43135V17.1777C6.43135 18.4848 5.36787 19.5482 4.06085 19.5482H2.33488C1.97888 19.5482 1.69035 19.2595 1.69035 18.9037V16.0963H1.64453C1.28853 16.0963 1 15.8078 1 15.4518C1 15.0958 1.28853 14.8072 1.64453 14.8072H1.69052V12V11.9948V11.9935V11.9911C1.69371 9.22919 3.18822 6.81035 5.41034 5.49712C5.4283 5.48402 5.4471 5.47177 5.46674 5.46036C5.48537 5.44962 5.50433 5.44005 5.52347 5.43132C6.62102 4.80827 7.88893 4.45177 9.23859 4.45177C10.5881 4.45177 11.8557 4.80811 12.953 5.43098C12.9725 5.43971 12.9916 5.44962 13.0104 5.46036C13.0301 5.47177 13.049 5.48419 13.067 5.49728C14.5217 6.35699 15.6644 7.6907 16.2811 9.28441ZM2.97942 14.8072H5.78682H15.4978V12.638H12.6904C12.4602 12.638 12.2474 12.5151 12.1323 12.3157L10.5924 9.64847H7.88474L6.34491 12.3157C6.22977 12.5151 6.01711 12.638 5.78682 12.638H2.97942V14.8072ZM13.0625 11.3489H15.464C15.2755 9.535 14.3092 7.94919 12.9057 6.93086L11.7088 9.00394L13.0625 11.3489ZM10.5924 8.35941L11.79 6.28499C11.0104 5.93553 10.1468 5.74083 9.23859 5.74083C8.33037 5.74083 7.4668 5.93553 6.68715 6.28499L7.88474 8.35941H10.5924ZM6.76839 9.00394L5.57147 6.93086C4.16794 7.94902 3.20148 9.535 3.01315 11.3488H5.4147L6.76839 9.00394ZM4.06085 18.2592C4.65704 18.2592 5.14229 17.7739 5.14229 17.1777V16.0963H2.97942V18.2592H4.06085ZM14.4163 16.0963H13.3349V18.2592H15.4978V17.1777C15.4978 16.5814 15.0125 16.0963 14.4163 16.0963ZM16.7868 14.8072H19.5941C20.7613 14.8072 21.7109 13.8576 21.7109 12.6904C21.7109 11.5231 20.7613 10.5735 19.5941 10.5735H16.651C16.7392 11.0327 16.7861 11.5065 16.7867 11.9911L16.7868 11.9935L16.7867 11.9948L16.7868 12V14.8072ZM19.1384 11.5441C19.2584 11.4241 19.4242 11.3554 19.5939 11.3554C19.7636 11.3554 19.9299 11.4241 20.0498 11.5441C20.1696 11.6643 20.2384 11.8303 20.2384 12C20.2384 12.1697 20.1696 12.336 20.0498 12.4558C19.9299 12.5757 19.7636 12.6445 19.5939 12.6445C19.4246 12.6445 19.2584 12.5757 19.1384 12.4558C19.018 12.336 18.9494 12.1697 18.9494 12C18.9494 11.8303 19.018 11.6643 19.1384 11.5441Z" fill="white"/>
</svg>
