<svg width="24" height="24" viewBox="0 0 24 24" fill="none" xmlns="http://www.w3.org/2000/svg">
<path fill-rule="evenodd" clip-rule="evenodd" d="M6 9.99999C6 11.66 6.67 13.16 7.76 14.24L9.17 12.83C8.45 12.1 8 11.1 8 9.99999C8 8.89999 8.45 7.89999 9.18 7.17999L7.76 5.75999C6.67 6.83999 6 8.33999 6 9.99999ZM18 9.99999C18 11.66 17.33 13.16 16.24 14.24L14.83 12.83C15.55 12.1 16 11.1 16 9.99999C16 8.89999 15.55 7.89999 14.82 7.17999L16.24 5.75999C17.33 6.83999 18 8.33999 18 9.99999ZM10 9.99999C10 8.89999 10.9 7.99999 12 7.99999C13.1 7.99999 14 8.89999 14 9.99999C14 10.7364 13.5967 11.3831 13 11.7302V21H11V11.7302C10.4033 11.3831 10 10.7364 10 9.99999ZM17.65 15.65C19.1 14.21 20 12.21 20 9.99999C20 7.78999 19.1 5.78999 17.65 4.34999L19.07 2.92999C20.88 4.73999 22 7.23999 22 9.99999C22 12.76 20.88 15.26 19.07 17.07L17.65 15.65ZM4.93 2.92999L6.35 4.34999C4.9 5.78999 4 7.78999 4 9.99999C4 12.21 4.9 14.21 6.35 15.65L4.93 17.07C3.12 15.26 2 12.76 2 9.99999C2 7.23999 3.12 4.73999 4.93 2.92999Z" fill="white"/>
</svg>
