<svg width="24" height="24" viewBox="0 0 24 24" fill="none" xmlns="http://www.w3.org/2000/svg">
<path fill-rule="evenodd" clip-rule="evenodd" d="M12.6026 20.0382C12.9226 20.8782 14.1126 20.8982 14.4626 20.0682L20.6126 5.39815C20.9426 4.56815 20.1126 3.73815 19.2926 4.07815L4.61259 10.2182C3.78259 10.5682 3.80259 11.7482 4.63259 12.0682L9.97259 14.1382C10.2326 14.2382 10.4426 14.4482 10.5426 14.7082L12.6026 20.0382ZM12.4088 13.9889C12.4089 13.9893 12.4091 13.9897 12.4093 13.9902L13.5762 17.0095L17.8325 6.85674L7.67831 11.1038L10.6905 12.2715C10.6915 12.2718 10.6925 12.2722 10.6935 12.2726C11.4799 12.576 12.1058 13.2023 12.4088 13.9889Z" fill="white"/>
</svg>
