<svg width="24" height="24" viewBox="0 0 24 24" fill="none" xmlns="http://www.w3.org/2000/svg">
<path fill-rule="evenodd" clip-rule="evenodd" d="M4.41421 12.2426L12.2426 4.41421L20.0711 12.2426L12.2426 20.0711L4.41421 12.2426ZM11.5355 2.29289C11.9261 1.90237 12.5592 1.90237 12.9498 2.29289L22.1924 11.5355C22.5829 11.9261 22.5829 12.5592 22.1924 12.9498L12.9498 22.1924C12.5592 22.5829 11.9261 22.5829 11.5355 22.1924L2.29289 12.9498C1.90237 12.5592 1.90237 11.9261 2.29289 11.5355L11.5355 2.29289ZM15.8787 11.5356L12.9498 8.60661C12.5592 8.21609 11.9261 8.21609 11.5355 8.60661L8.60655 11.5356C8.21603 11.9261 8.21603 12.5593 8.60655 12.9498L11.5355 15.8788C11.9261 16.2693 12.5592 16.2693 12.9498 15.8788L15.8787 12.9498C16.2693 12.5593 16.2693 11.9261 15.8787 11.5356Z" fill="white"/>
</svg>
