<svg width="24" height="24" viewBox="0 0 24 24" fill="none" xmlns="http://www.w3.org/2000/svg">
<path d="M12 2L4 5V11.09C4 16.14 7.41 20.85 12 22C16.59 20.85 20 16.14 20 11.09V5L12 2ZM18 11.09C18 15.09 15.45 18.79 12 19.92C8.55 18.79 6 15.1 6 11.09V6.31L12 4.19L18 6.31V11.09Z" fill="white"/>
<path d="M13.077 7.15384H10.8334L11.3943 13.6154H12.5161L13.077 7.15384Z" fill="white"/>
<path d="M13.077 15.7692C13.077 16.364 12.5748 16.8461 11.9552 16.8461C11.3356 16.8461 10.8334 16.364 10.8334 15.7692C10.8334 15.1745 11.3356 14.6923 11.9552 14.6923C12.5748 14.6923 13.077 15.1745 13.077 15.7692Z" fill="white"/>
</svg>
