<svg width="24" height="24" viewBox="0 0 24 24" fill="none" xmlns="http://www.w3.org/2000/svg">
<path fill-rule="evenodd" clip-rule="evenodd" d="M22 12C22 13.0452 21.8396 14.053 21.5422 15H2.4578C2.16035 14.053 2 13.0452 2 12C2 6.47715 6.47715 2 12 2C17.5228 2 22 6.47715 22 12ZM12 3C11.4477 3 11 3.44772 11 4V6C11 6.55228 11.4477 7 12 7C12.5523 7 13 6.55228 13 6V4C13 3.44772 12.5523 3 12 3ZM12 14C13.1046 14 14 13.1046 14 12C14 11.8208 13.9764 11.6472 13.9323 11.482L16.7071 8.70711C17.0976 8.31658 17.0976 7.68342 16.7071 7.29289C16.3166 6.90237 15.6834 6.90237 15.2929 7.29289L12.518 10.0677C12.3528 10.0236 12.1792 10 12 10C10.8954 10 10 10.8954 10 12C10 13.1046 10.8954 14 12 14ZM5.63582 5.63603C5.24529 6.02656 5.24529 6.65972 5.63582 7.05025L7.05003 8.46446C7.44056 8.85498 8.07372 8.85498 8.46424 8.46446C8.85477 8.07394 8.85477 7.44077 8.46424 7.05025L7.05003 5.63603C6.65951 5.24551 6.02634 5.24551 5.63582 5.63603ZM3 12C3 12.5523 3.44772 13 4 13H6C6.55228 13 7 12.5523 7 12C7 11.4477 6.55228 11 6 11H4C3.44772 11 3 11.4477 3 12ZM18 13C17.4477 13 17 12.5523 17 12C17 11.4477 17.4477 11 18 11H20C20.5523 11 21 11.4477 21 12C21 12.5523 20.5523 13 20 13H18ZM6.16993 21.07C5.78726 21.07 5.43493 21.007 5.11293 20.881C4.79093 20.755 4.51093 20.58 4.27293 20.356C4.03493 20.1274 3.85059 19.8614 3.71993 19.558C3.58926 19.25 3.52393 18.914 3.52393 18.55C3.52393 18.186 3.58926 17.8524 3.71993 17.549C3.85059 17.241 4.03493 16.975 4.27293 16.751C4.51093 16.5224 4.79093 16.345 5.11293 16.219C5.43493 16.093 5.78493 16.03 6.16293 16.03C6.54559 16.03 6.89559 16.093 7.21293 16.219C7.53493 16.345 7.81493 16.5224 8.05293 16.751C8.29093 16.975 8.47526 17.241 8.60593 17.549C8.73659 17.8524 8.80193 18.186 8.80193 18.55C8.80193 18.914 8.73659 19.25 8.60593 19.558C8.47526 19.866 8.29093 20.132 8.05293 20.356C7.81493 20.58 7.53493 20.755 7.21293 20.881C6.89559 21.007 6.54793 21.07 6.16993 21.07ZM6.16293 20.272C6.41026 20.272 6.63893 20.23 6.84893 20.146C7.05893 20.062 7.24093 19.943 7.39493 19.789C7.54893 19.6304 7.66793 19.4484 7.75193 19.243C7.84059 19.033 7.88493 18.802 7.88493 18.55C7.88493 18.298 7.84059 18.0694 7.75193 17.864C7.66793 17.654 7.54893 17.472 7.39493 17.318C7.24093 17.1594 7.05893 17.038 6.84893 16.954C6.63893 16.87 6.41026 16.828 6.16293 16.828C5.91559 16.828 5.68693 16.87 5.47693 16.954C5.27159 17.038 5.08959 17.1594 4.93093 17.318C4.77693 17.472 4.65559 17.654 4.56693 17.864C4.48293 18.0694 4.44093 18.298 4.44093 18.55C4.44093 18.7974 4.48293 19.026 4.56693 19.236C4.65559 19.446 4.77693 19.6304 4.93093 19.789C5.08493 19.943 5.26693 20.062 5.47693 20.146C5.68693 20.23 5.91559 20.272 6.16293 20.272ZM9.7665 16.1H11.9085C12.4405 16.1 12.9072 16.2027 13.3085 16.408C13.7098 16.6134 14.0225 16.898 14.2465 17.262C14.4705 17.626 14.5825 18.0554 14.5825 18.55C14.5825 19.04 14.4705 19.4694 14.2465 19.838C14.0225 20.202 13.7098 20.4867 13.3085 20.692C12.9072 20.8974 12.4405 21 11.9085 21H9.7665V16.1ZM10.6765 20.23H11.8665C12.2352 20.23 12.5525 20.16 12.8185 20.02C13.0892 19.88 13.2968 19.684 13.4415 19.432C13.5908 19.18 13.6655 18.886 13.6655 18.55C13.6655 18.2094 13.5908 17.9154 13.4415 17.668C13.2968 17.416 13.0892 17.22 12.8185 17.08C12.5525 16.94 12.2352 16.87 11.8665 16.87H10.6765V20.23ZM16.7887 20.881C17.1107 21.007 17.463 21.07 17.8457 21.07C18.2237 21.07 18.5714 21.007 18.8887 20.881C19.2107 20.755 19.4907 20.58 19.7287 20.356C19.9667 20.132 20.151 19.866 20.2817 19.558C20.4124 19.25 20.4777 18.914 20.4777 18.55C20.4777 18.186 20.4124 17.8524 20.2817 17.549C20.151 17.241 19.9667 16.975 19.7287 16.751C19.4907 16.5224 19.2107 16.345 18.8887 16.219C18.5714 16.093 18.2214 16.03 17.8387 16.03C17.4607 16.03 17.1107 16.093 16.7887 16.219C16.4667 16.345 16.1867 16.5224 15.9487 16.751C15.7107 16.975 15.5264 17.241 15.3957 17.549C15.265 17.8524 15.1997 18.186 15.1997 18.55C15.1997 18.914 15.265 19.25 15.3957 19.558C15.5264 19.8614 15.7107 20.1274 15.9487 20.356C16.1867 20.58 16.4667 20.755 16.7887 20.881ZM18.5247 20.146C18.3147 20.23 18.086 20.272 17.8387 20.272C17.5914 20.272 17.3627 20.23 17.1527 20.146C16.9427 20.062 16.7607 19.943 16.6067 19.789C16.4527 19.6304 16.3314 19.446 16.2427 19.236C16.1587 19.026 16.1167 18.7974 16.1167 18.55C16.1167 18.298 16.1587 18.0694 16.2427 17.864C16.3314 17.654 16.4527 17.472 16.6067 17.318C16.7654 17.1594 16.9474 17.038 17.1527 16.954C17.3627 16.87 17.5914 16.828 17.8387 16.828C18.086 16.828 18.3147 16.87 18.5247 16.954C18.7347 17.038 18.9167 17.1594 19.0707 17.318C19.2247 17.472 19.3437 17.654 19.4277 17.864C19.5164 18.0694 19.5607 18.298 19.5607 18.55C19.5607 18.802 19.5164 19.033 19.4277 19.243C19.3437 19.4484 19.2247 19.6304 19.0707 19.789C18.9167 19.943 18.7347 20.062 18.5247 20.146Z" fill="white"/>
</svg>
