<svg width="24" height="24" viewBox="0 0 24 24" fill="none" xmlns="http://www.w3.org/2000/svg">
<path fill-rule="evenodd" clip-rule="evenodd" d="M5.80219 4L7.58579 4L10.5858 6.99999L6.58576 11L4.24664 11L5.80219 4ZM12.6998 6.28557C12.7182 6.30362 12.7359 6.32234 12.7528 6.34169C12.8928 6.50146 12.9733 6.69517 12.9944 6.89399C12.9964 6.91329 12.9979 6.93265 12.9989 6.95203C12.9996 6.96794 13 6.98392 13 6.99997L13 16.9993C13 16.9995 13 16.9997 13 17C13 17.0271 12.9989 17.054 12.9967 17.0808C12.9789 17.3025 12.8874 17.5194 12.7222 17.6917C12.7162 17.698 12.7101 17.7042 12.704 17.7103L10.4142 20H11.6755C11.7829 20 11.8897 19.9827 11.9917 19.9487L20 17.2792L20 6.72076L11.9917 4.05132C11.8897 4.01733 11.7829 4 11.6755 4H10.4142L12.6998 6.28557ZM8.00098 22H11.6755C11.9979 22 12.3182 21.948 12.6241 21.8461L20.6325 19.1766C21.4492 18.9044 22 18.1401 22 17.2792V6.72076C22 5.8599 21.4492 5.09562 20.6325 4.82339L12.6241 2.15395C12.3182 2.05198 11.9979 2 11.6755 2H8.00017H7.99983H5.80219C4.86479 2 4.05317 2.65106 3.84982 3.56614L2.07204 11.5661C2.00854 11.8519 2.00854 12.1481 2.07204 12.4339L3.84982 20.4339C4.05317 21.3489 4.86479 22 5.80219 22H7.99902C7.99967 22 8.00033 22 8.00098 22ZM7.58579 20L10.5858 17L6.58582 13L4.24664 13L5.80219 20H7.58579ZM16 16H18V8H16V16ZM8.41421 12L11 9.41418L11 14.5858L8.41421 12Z" fill="white"/>
</svg>
