<svg width="24" height="24" viewBox="0 0 24 24" fill="none" xmlns="http://www.w3.org/2000/svg">
<path fill-rule="evenodd" clip-rule="evenodd" d="M17 21L17 22.7999C17 23.4599 16.46 23.9999 15.8 23.9999L6.2 23.9999C5.54 23.9999 5 23.4599 5 22.7999L5 3.20001C5 2.54001 5.54 2.00001 6.2 2.00001L9 2.00001L9 7.45455e-06L13 7.2797e-06L13 2.00001L15.8 2.00001C16.46 2.00001 17 2.54001 17 3.20001L17 9C16.1827 9 15.6505 9 15 9L15 4.00001L7 4.00001L7 14.3999L7 22L15 22L15 21C15.6505 21 16.2325 21 17 21ZM16.8039 12L15.1719 14.832L17 18L15.6505 18L14.4971 15.996L13.3437 18L12 18L13.8281 14.832L12.1961 12L13.5398 12L14.5029 13.662L15.4602 12L16.8039 12ZM21.5 15.5L19.5 15.5L19.5 16.5L22.5 16.5L22.5 18L18 18L18 15.5C18 14.95 18.45 14.5 19 14.5L21 14.5L21 13.5L18 13.5L18 12L21.5 12C22.05 12 22.5 12.45 22.5 13L22.5 14.5C22.5 15.05 22.05 15.5 21.5 15.5Z" fill="white"/>
</svg>
