<svg width="24" height="24" viewBox="0 0 24 24" fill="none" xmlns="http://www.w3.org/2000/svg">
<path fill-rule="evenodd" clip-rule="evenodd" d="M12 1.5V3.5H16V1.5H18V8H20C21.1046 8 22 8.89543 22 10V11H24V13H22V14C22 15.1046 21.1046 16 20 16H18V22.5H16V20.5H12V22.5H10V20.0542L6 17.5542V16H4C2.89543 16 2 15.1046 2 14V13H0V11H2V10C2 8.89543 2.89543 8 4 8H6V5.88197L10 3.88197V1.5H12ZM8 8V16V16.4458L10 17.6958V6.11803L8 7.11803V8ZM6 10H4V14H6V10ZM18 14V10H20V14H18ZM16 5.5V8V16V18.5H12V5.5H16Z" fill="white"/>
</svg>
