<svg width="24" height="24" viewBox="0 0 24 24" fill="none" xmlns="http://www.w3.org/2000/svg">
<path fill-rule="evenodd" clip-rule="evenodd" d="M5.90372 6.81946C4.71643 8.21526 4 10.024 4 12H2C2 6.47715 6.47715 2 12 2C12.0295 2 12.059 2.00013 12.0885 2.00038C12.1177 2.00013 12.1471 2 12.1764 2C17.594 2 21.9999 6.35775 21.9999 11.7507C21.9999 11.7909 21.9997 11.8311 21.9992 11.8712C21.9997 11.9141 22 11.957 22 12H21.9968C21.9711 13.014 21.7891 13.9912 21.4734 14.9076C21.2934 15.4298 20.7243 15.7072 20.2021 15.5273C19.68 15.3474 19.4025 14.7782 19.5825 14.2561C19.7218 13.8517 19.8284 13.432 19.899 13H18C17.4477 13 17 12.5523 17 12C17 11.4477 17.4477 11 18 11H19.9381C19.4869 7.38128 16.6187 4.51314 13 4.06189V6C13 6.55228 12.5523 7 12 7C11.4477 7 11 6.55228 11 6V4.08694C9.68807 4.28277 8.48378 4.80116 7.47075 5.55807L8.70703 6.79435C9.09756 7.18487 9.09756 7.81804 8.70703 8.20856C8.31651 8.59908 7.68334 8.59908 7.29282 8.20856L5.90372 6.81946ZM0 14H6C7.10457 14 8 14.8954 8 16V19H11C11 18.4477 11.4477 18 12 18H16.7639C17.3132 17.3863 18.1115 17 19 17C20.6569 17 22 18.3431 22 20C22 21.6569 20.6569 23 19 23C18.1115 23 17.3132 22.6138 16.7639 22H12C11.4477 22 11 21.5523 11 21H8C6.89543 21 6 20.1046 6 19V16H0V14ZM14 12C14 13.1046 13.1046 14 12 14C10.8954 14 10 13.1046 10 12C10 10.8954 10.8954 10 12 10C12.1792 10 12.3528 10.0236 12.518 10.0677L15.2929 7.29289C15.6834 6.90237 16.3166 6.90237 16.7071 7.29289C17.0976 7.68342 17.0976 8.31658 16.7071 8.70711L13.9323 11.482C13.9764 11.6472 14 11.8208 14 12Z" fill="white"/>
</svg>
