<svg width="24" height="24" viewBox="0 0 24 24" fill="none" xmlns="http://www.w3.org/2000/svg">
<path fill-rule="evenodd" clip-rule="evenodd" d="M9.5 5.5C9.5 4.11929 10.6193 3 12 3C13.3807 3 14.5 4.11929 14.5 5.5V8.5H9.5V5.5ZM7.5 8.5H7H6C4.9 8.5 4 9.4 4 10.5V20.5C4 21.6 4.9 22.5 6 22.5H18C19.1 22.5 20 21.6 20 20.5V10.5C20 9.4 19.1 8.5 18 8.5H17H16.5V5.5C16.5 3.01472 14.4853 1 12 1C9.51472 1 7.5 3.01472 7.5 5.5V8.5ZM6 20.5V10.5H18V20.5H6ZM10 15.5C10 16.6 10.9 17.5 12 17.5C13.1 17.5 14 16.6 14 15.5C14 14.4 13.1 13.5 12 13.5C10.9 13.5 10 14.4 10 15.5Z" fill="white"/>
</svg>
