<svg width="24" height="24" viewBox="0 0 24 24" fill="none" xmlns="http://www.w3.org/2000/svg">
<path fill-rule="evenodd" clip-rule="evenodd" d="M13 2H7.5L4 6.66667L4 8.5H2C0.895432 8.5 0 9.39543 0 10.5V13.5C0 14.6046 0.895431 15.5 2 15.5L4 15.5L4 17.3333L7.5 22H16V20H20V15.5L22 15.5C23.1046 15.5 24 14.6046 24 13.5V10.5C24 9.39543 23.1046 8.5 22 8.5H20L20 4H13V2ZM13 6V11.882L16 13.382V18H18V13.5V10.5V6H13ZM14 18V14.618L11 13.118V4H8.5L6 7.33333V10.4986C6 10.4991 6 10.4995 6 10.5L6 13.5V16.6667L8.5 20H14V18ZM4 13.5L4 10.5L2 10.5L2 13.5L4 13.5ZM20 13.5V10.5L22 10.5V13.5L20 13.5Z" fill="white"/>
</svg>
