<svg width="24" height="24" viewBox="0 0 24 24" fill="none" xmlns="http://www.w3.org/2000/svg">
<path fill-rule="evenodd" clip-rule="evenodd" d="M20 12C20 16.4183 16.4183 20 12 20C7.58172 20 4 16.4183 4 12C4 7.58172 7.58172 4 12 4C16.4183 4 20 7.58172 20 12ZM22 12C22 17.5228 17.5228 22 12 22C6.47715 22 2 17.5228 2 12C2 6.47715 6.47715 2 12 2C17.5228 2 22 6.47715 22 12ZM12.0002 7.33333C12.6445 7.33333 13.1668 6.811 13.1668 6.16667C13.1668 5.52233 12.6445 5 12.0002 5C11.3558 5 10.8335 5.52233 10.8335 6.16667C10.8335 6.811 11.3558 7.33333 12.0002 7.33333ZM13.1668 17.8333C13.1668 18.4777 12.6445 19 12.0002 19C11.3558 19 10.8335 18.4777 10.8335 17.8333C10.8335 17.189 11.3558 16.6667 12.0002 16.6667C12.6445 16.6667 13.1668 17.189 13.1668 17.8333ZM8.69997 8.7002C9.15558 8.24459 9.15558 7.5059 8.69997 7.05029C8.24436 6.59467 7.50567 6.59467 7.05006 7.05029C6.59444 7.5059 6.59444 8.24459 7.05006 8.7002C7.50567 9.15581 8.24436 9.15581 8.69997 8.7002ZM16.9498 15.2998C17.4054 15.7555 17.4054 16.4941 16.9498 16.9498C16.4942 17.4054 15.7555 17.4054 15.2999 16.9498C14.8443 16.4941 14.8443 15.7555 15.2999 15.2998C15.7555 14.8442 16.4942 14.8442 16.9498 15.2998ZM7.33333 12C7.33333 11.3556 6.811 10.8333 6.16667 10.8333C5.52233 10.8333 5 11.3556 5 12C5 12.6443 5.52233 13.1666 6.16667 13.1666C6.811 13.1666 7.33333 12.6443 7.33333 12ZM17.8333 10.8333C18.4777 10.8333 19 11.3556 19 12C19 12.6443 18.4777 13.1666 17.8333 13.1666C17.189 13.1666 16.6667 12.6443 16.6667 12C16.6667 11.3556 17.189 10.8333 17.8333 10.8333ZM8.69996 15.2998C8.24435 14.8442 7.50565 14.8442 7.05004 15.2998C6.59443 15.7554 6.59443 16.4941 7.05004 16.9497C7.50565 17.4053 8.24435 17.4053 8.69996 16.9497C9.15557 16.4941 9.15557 15.7554 8.69996 15.2998ZM15.2999 7.05023C15.7555 6.59462 16.4942 6.59462 16.9498 7.05023C17.4054 7.50584 17.4054 8.24454 16.9498 8.70015C16.4942 9.15576 15.7555 9.15576 15.2999 8.70015C14.8443 8.24454 14.8443 7.50584 15.2999 7.05023ZM14.5648 9.43483L13.1103 9.31876L11.9997 8.3723L10.889 9.31876L9.43447 9.43483L9.31839 10.8894L8.37193 12L9.31839 13.1106L9.43447 14.5652L10.889 14.6813L11.9997 15.6277L13.1103 14.6813L14.5648 14.5652L14.6809 13.1106L15.6274 12L14.6809 10.8894L14.5648 9.43483ZM11.9997 11L11.6935 11.2609L11.2925 11.2929L11.2606 11.6939L10.9997 12L11.2606 12.3062L11.2925 12.7071L11.6935 12.7391L11.9997 13L12.3058 12.7391L12.7068 12.7071L12.7388 12.3062L12.9997 12L12.7388 11.6939L12.7068 11.2929L12.3058 11.2609L11.9997 11Z" fill="white"/>
</svg>
