<svg width="24" height="24" viewBox="0 0 24 24" fill="none" xmlns="http://www.w3.org/2000/svg">
<path fill-rule="evenodd" clip-rule="evenodd" d="M7 11V14C7 14.5523 6.55228 15 6 15H5L5 21L15 21V19L11 19C9.89543 19 9 18.1046 9 17L9 5C9 3.89543 9.89543 3 11 3H15V1H17V3H21C22.1046 3 23 3.89543 23 5V17C23 18.1046 22.1046 19 21 19L17 19V21C17 22.1046 16.1046 23 15 23H5C3.89543 23 3 22.1046 3 21L3 15H2C1.44772 15 1 14.5523 1 14V11V10V8H3V10H5V8H7V10V11ZM17 5H15L11 5L11 17L21 17V5L17 5ZM15.1667 16V11.7692H13.5L16.8333 6V10.2308H18.5L15.1667 16Z" fill="white"/>
</svg>
