<svg width="24" height="24" viewBox="0 0 24 24" fill="none" xmlns="http://www.w3.org/2000/svg">
<path fill-rule="evenodd" clip-rule="evenodd" d="M5.18862 1.75162C6.43597 1.16077 7.9281 1.59778 8.65961 2.7682L10.0545 5H12.9998V4H14.9998C18.3135 4 20.9998 6.68629 20.9998 10V12H17.9737L15.0799 15.5369L15.9619 17.024C16.0173 17.123 15.9896 17.24 15.9065 17.312L14.9276 18.059C14.9553 18.203 14.9645 18.347 14.9645 18.5C14.9645 18.653 14.946 18.797 14.9276 18.941L15.9158 19.688C15.9989 19.76 16.0266 19.877 15.9712 19.976L15.0476 21.533C14.983 21.632 14.8629 21.668 14.7613 21.632L13.6069 21.182C13.376 21.362 13.1082 21.506 12.8311 21.623L12.6556 22.811C12.6371 22.919 12.5356 23 12.4247 23H10.5776C10.4576 23 10.3652 22.919 10.3467 22.811L10.1713 21.623C9.88495 21.515 9.62636 21.362 9.38623 21.182L8.24103 21.632C8.1302 21.668 8.01014 21.632 7.95472 21.533L7.03117 19.976C6.97576 19.877 7.00346 19.76 7.08658 19.688L8.06555 18.941C8.04708 18.797 8.03784 18.653 8.03784 18.5C8.03784 18.347 8.04708 18.203 8.06555 18.059L7.08658 17.312C6.99423 17.24 6.97576 17.123 7.03117 17.024L7.95472 15.467C8.01937 15.368 8.13943 15.332 8.24103 15.368L9.38623 15.818C9.62636 15.638 9.89419 15.494 10.1713 15.377L10.3467 14.189C10.3652 14.081 10.4668 14 10.5776 14H12.4247C12.4291 14 12.4335 14.0001 12.4379 14.0004L12.9228 11.3335L11.0705 10.4627L7.5426 12.3601L3.94225 5.46944C3.22725 4.10103 3.7933 2.41256 5.18862 1.75162ZM12.9998 9.15973V7H8.94599L6.96361 3.82819C6.76997 3.51837 6.37498 3.40269 6.04479 3.55909C5.67543 3.73405 5.52559 4.18101 5.71486 4.54325L8.37787 9.63992L11.01 8.22426L12.9998 9.15973ZM11.5343 19.9996L12.0531 19.7805C12.2218 19.7093 12.3237 19.6464 12.3772 19.6047L12.8759 19.2159L12.9438 18.6865C12.9537 18.6094 12.9586 18.57 12.9619 18.5353C12.9643 18.5101 12.9645 18.4999 12.9645 18.4993V18.4992C12.9645 18.4579 12.963 18.4377 12.9624 18.4307L12.8283 17.7339L12.4073 17.4183C12.283 17.3251 12.1889 17.2758 12.116 17.2483L11.4637 17.0022L10.9493 17.2195C10.7848 17.2889 10.667 17.3575 10.5858 17.4183L10.1193 17.7681L10.0493 18.3135C10.0419 18.3712 10.0378 18.4301 10.0378 18.5C10.0378 18.5699 10.0419 18.6288 10.0493 18.6865L10.1193 19.2319L10.5858 19.5817C10.7101 19.6749 10.8042 19.7242 10.8771 19.7517L11.5343 19.9996ZM14.9998 11.0902V6C17.2089 6 18.9998 7.79086 18.9998 10H17.0259L14.6758 12.8724L14.9998 11.0902Z" fill="white"/>
</svg>
