<svg width="24" height="24" viewBox="0 0 24 24" fill="none" xmlns="http://www.w3.org/2000/svg">
<path fill-rule="evenodd" clip-rule="evenodd" d="M6 8H7V12C7 12.5523 6.55228 13 6 13H5L5 21H15L15 19H11C9.89543 19 9 18.1046 9 17L9 3C9 1.89543 9.89543 1 11 1H21C22.1046 1 23 1.89543 23 3V17C23 18.1046 22.1046 19 21 19H17L17 21C17 22.1046 16.1046 23 15 23H5C3.89543 23 3 22.1046 3 21L3 13H2C1.44772 13 1 12.5523 1 12V8H2V7C2 6.44771 2.44772 6 3 6H5C5.55228 6 6 6.44771 6 7V8ZM21 17V3H11L11 17H21ZM19 5L13 5L13 8L19 8V5Z" fill="white"/>
</svg>
