<svg width="24" height="24" viewBox="0 0 24 24" fill="none" xmlns="http://www.w3.org/2000/svg">
<path fill-rule="evenodd" clip-rule="evenodd" d="M16.5 5.5C16.5 4.11929 17.6193 3 19 3C20.3807 3 21.5 4.11929 21.5 5.5V8.5H23.5V5.5C23.5 3.01472 21.4853 1 19 1C16.5147 1 14.5 3.01472 14.5 5.5V8.5H8.9H7H6C4.9 8.5 4 9.4 4 10.5V20.5C4 21.6 4.9 22.5 6 22.5H18C19.1 22.5 20 21.6 20 20.5V10.5C20 9.4 19.1 8.5 18 8.5H17H16.5V5.5ZM6 20.5V10.5H18V20.5H6ZM10 15.5C10 16.6 10.9 17.5 12 17.5C13.1 17.5 14 16.6 14 15.5C14 14.4 13.1 13.5 12 13.5C10.9 13.5 10 14.4 10 15.5Z" fill="white"/>
</svg>
