<svg width="24" height="24" viewBox="0 0 24 24" fill="none" xmlns="http://www.w3.org/2000/svg">
<path fill-rule="evenodd" clip-rule="evenodd" d="M9.17071 11L5.07089 11C5.24053 9.81401 5.70746 8.72391 6.39376 7.80763L9.29248 10.7063C9.24691 10.8016 9.20621 10.8996 9.17071 11ZM5.07089 13H9.17071C9.20618 13.1004 9.24684 13.1983 9.29237 13.2934L6.39362 16.1922C5.70739 15.2759 5.24052 14.1859 5.07089 13ZM7.80783 17.6064L10.7066 14.7076C10.8017 14.7532 10.8996 14.7938 11 14.8293V18.9291C9.81409 18.7595 8.72407 18.2926 7.80783 17.6064ZM10.7068 9.29226L7.80803 6.39347C8.72423 5.70732 9.81418 5.24051 11 5.07089V9.17071C10.8997 9.20615 10.8019 9.24677 10.7068 9.29226ZM18.9291 13H14.8293C14.528 13.8524 13.8524 14.528 13 14.8293V18.9291C14.186 18.7595 15.2761 18.2925 16.1923 17.6063L14.7931 16.2073L16.2072 14.793L17.6065 16.192C18.2927 15.2758 18.7595 14.1858 18.9291 13ZM18.9291 11L14.8293 11C14.7938 10.8996 14.7531 10.8016 14.7076 10.7064L17.6063 7.8077C18.2926 8.72397 18.7595 9.81404 18.9291 11ZM13.2933 9.2923L16.192 6.39352C15.2758 5.70735 14.1859 5.24051 13 5.07089V9.17071C13.1003 9.20616 13.1982 9.2468 13.2933 9.2923ZM12 3C7.02944 3 3 7.02944 3 12C3 16.9706 7.02944 21 12 21C16.9706 21 21 16.9706 21 12C21 7.02944 16.9706 3 12 3ZM11 12C11 12.5523 11.4477 13 12 13C12.5523 13 13 12.5523 13 12C13 11.4477 12.5523 11 12 11C11.4477 11 11 11.4477 11 12Z" fill="white"/>
</svg>
