<svg width="25" height="24" viewBox="0 0 25 24" fill="none" xmlns="http://www.w3.org/2000/svg">
<path fill-rule="evenodd" clip-rule="evenodd" d="M16.5002 17.4093L16.5002 13.7324L16.5 13.7323L13.3164 15.5704C14.1195 16.5105 15.234 17.1767 16.5002 17.4093ZM12.3152 13.839L15.5002 12.0002L15.5002 12C15.5002 11.9999 15.5002 11.9999 15.5002 11.9998L12.3152 10.1609C12.1112 10.736 12.0002 11.355 12.0002 12C12.0002 12.645 12.1112 13.264 12.3152 13.839ZM13.3164 8.42964L16.5 10.2677C16.5 10.2676 16.5001 10.2676 16.5002 10.2676L16.5002 6.6402C15.8014 6.77231 15.1075 7.04853 14.4541 7.48789L13.8125 7.91936C13.6364 8.07859 13.4707 8.24906 13.3164 8.42964ZM18.5002 13.7324L18.5006 13.7322L21.6802 15.5679C21.2495 16.0751 20.728 16.5028 20.1408 16.8258C19.6367 17.1022 19.0846 17.302 18.5002 17.4093L18.5002 13.7324ZM22.6746 13.8327L19.5003 12L22.6644 10.1732C22.8671 10.7434 22.9791 11.3655 22.9791 12.0284C22.9791 12.6606 22.8719 13.2677 22.6746 13.8327ZM21.6534 8.44751L18.5006 10.2678L18.5002 10.2676L18.5002 6.64245C19.7166 6.8727 20.8373 7.51146 21.6534 8.44751ZM21.1023 18.5799C23.4254 17.3055 25.0002 14.8367 25.0002 12C25.0002 7.85786 21.6423 4.5 17.5002 4.5C15.6206 4.5 13.9026 5.19138 12.5864 6.33369L2.53108 13.0956C-0.336514 15.024 1.0285 19.5 4.48418 19.5L4.50017 19.5L17.5002 19.5L17.5075 19.5C18.8106 19.5 20.0358 19.1664 21.1023 18.5799ZM8.00017 16C8.00017 16.5368 7.87932 17.0454 7.66335 17.5L12.4011 17.5C10.9243 16.1303 10.0002 14.1731 10.0002 12C10.0002 11.4375 10.0621 10.8896 10.1795 10.3625L6.27926 12.9852C7.30935 13.5944 8.00017 14.7165 8.00017 16ZM6.00017 16C6.00017 16.8284 5.3286 17.5 4.50017 17.5C3.67174 17.5 3.00017 16.8284 3.00017 16C3.00017 15.1716 3.67174 14.5 4.50017 14.5C5.3286 14.5 6.00017 15.1716 6.00017 16Z" fill="white"/>
</svg>
