<svg width="25" height="24" viewBox="0 0 25 24" fill="none" xmlns="http://www.w3.org/2000/svg">
<path fill-rule="evenodd" clip-rule="evenodd" d="M17.5 17.5C18.457 17.5 19.3568 17.2556 20.1406 16.8258C21.8324 15.8952 22.9789 14.0957 22.9789 12.0284C22.9789 7.64826 18.0887 5.04366 14.454 7.48789L13.8123 7.91936C12.6993 8.92582 12 10.3812 12 12C12 15.0376 14.4624 17.5 17.5 17.5ZM25 12C25 14.8367 23.4252 17.3055 21.1021 18.5799C20.0356 19.1664 18.8104 19.5 17.5073 19.5H17.5H4.5H4.48401C1.02833 19.5 -0.336681 15.024 2.53092 13.0956L12.5863 6.3337C13.9024 5.19138 15.6205 4.5 17.5 4.5C21.6421 4.5 25 7.85786 25 12ZM7.66318 17.5C7.87915 17.0454 8 16.5368 8 16C8 14.7165 7.30918 13.5944 6.27909 12.9853L10.1793 10.3625C10.0619 10.8896 10 11.4376 10 12C10 14.1731 10.9242 16.1303 12.4009 17.5H7.66318ZM4.5 17.5C5.32843 17.5 6 16.8284 6 16C6 15.1716 5.32843 14.5 4.5 14.5C3.67157 14.5 3 15.1716 3 16C3 16.8284 3.67157 17.5 4.5 17.5ZM16.5346 15.7067C16.5097 15.8622 16.6445 16 16.8192 16C16.9241 16 17.019 15.9511 17.0689 15.8711C17.1445 15.7537 17.2714 15.5559 17.45 15.2777C17.9205 14.5447 18.7492 13.2536 19.9399 11.4044C20.0497 11.1956 19.9399 11.1111 19.7402 11.1111H17.9876L18.437 8.29333C18.4619 8.13778 18.3271 8 18.1524 8C18.0525 8 17.9527 8.04889 17.9027 8.12889C17.3332 9.02118 16.827 9.81168 16.3852 10.5017L16.385 10.502L16.3845 10.5029L16.384 10.5035C15.8581 11.3249 15.4235 12.0037 15.0817 12.5422L15.08 12.5443C15.0555 12.5757 14.8106 12.8889 15.2365 12.8889H16.984L16.5346 15.7067Z" fill="white"/>
</svg>
