<svg width="24" height="24" viewBox="0 0 24 24" fill="none" xmlns="http://www.w3.org/2000/svg">
<path fill-rule="evenodd" clip-rule="evenodd" d="M5 5H19V19H5L5 5ZM3 5C3 3.89543 3.89543 3 5 3H19C20.1046 3 21 3.89543 21 5V19C21 20.1046 20.1046 21 19 21H5C3.89543 21 3 20.1046 3 19V5ZM13 15V9H15V15H13ZM11 8C11 7.44772 11.4477 7 12 7H16C16.5523 7 17 7.44772 17 8V16C17 16.5523 16.5523 17 16 17H12C11.4477 17 11 16.5523 11 16V8ZM7.56706 8.25C7.75951 7.91667 8.24063 7.91667 8.43308 8.25L9.29911 9.75C9.49156 10.0833 9.251 10.5 8.8661 10.5H7.13405C6.74915 10.5 6.50858 10.0833 6.70103 9.75L7.56706 8.25ZM7.56692 15.75C7.75937 16.0833 8.24049 16.0833 8.43294 15.75L9.29897 14.25C9.49142 13.9167 9.25085 13.5 8.86595 13.5H7.1339C6.749 13.5 6.50844 13.9167 6.70089 14.25L7.56692 15.75Z" fill="white"/>
</svg>
