<svg width="24" height="24" viewBox="0 0 24 24" fill="none" xmlns="http://www.w3.org/2000/svg">
<path fill-rule="evenodd" clip-rule="evenodd" d="M16 8.5C16 10.9853 13.9853 13 11.5 13C9.01472 13 7 10.9853 7 8.5C7 6.01472 9.01472 4 11.5 4C13.9853 4 16 6.01472 16 8.5ZM18 8.5C18 8.89425 17.9649 9.2803 17.8977 9.6552L20.2425 12C21.414 13.1716 21.414 15.0711 20.2425 16.2426C19.0709 17.4142 17.1714 17.4142 15.9998 16.2426L14.1805 14.4233C13.3632 14.7937 12.4557 15 11.5 15C10.341 15 9.25279 14.6966 8.31054 14.165C8.76607 14.8549 9.36691 15.5549 10.1584 16.2474C11.5158 17.4353 12.2479 18.5702 12.6262 19.6009C13 20.6194 13 21.4676 12.9999 21.9861L12.9999 22H10.9999C10.9999 21.5171 10.9965 20.9652 10.7486 20.2899C10.5019 19.6175 9.98395 18.7524 8.84132 17.7526C6.68044 15.8617 5.65699 13.8441 5.21449 11.9811C4.78904 10.1898 4.91332 8.58129 4.99655 7.5042L5.00279 7.42331L5.08768 7.42984C5.59799 4.34917 8.27466 2 11.5 2C15.0899 2 18 4.91015 18 8.5ZM11.5 10C12.3284 10 13 9.32843 13 8.5C13 7.67157 12.3284 7 11.5 7C10.6716 7 10 7.67157 10 8.5C10 9.32843 10.6716 10 11.5 10ZM17.414 12L15.9998 13.4142L17.414 14.8284C17.8046 15.219 18.4377 15.219 18.8282 14.8284C19.2188 14.4379 19.2188 13.8047 18.8282 13.4142L17.414 12Z" fill="white"/>
</svg>
