<svg width="24" height="24" viewBox="0 0 24 24" fill="none" xmlns="http://www.w3.org/2000/svg">
<path fill-rule="evenodd" clip-rule="evenodd" d="M2 10L2 16H0L0 10H2ZM8 4C9.10457 4 10 4.89543 10 6H14C14 4.89543 14.8954 4 16 4H19C20.1046 4 21 4.89543 21 6V19C21 20.1046 20.1046 21 19 21H16C14.8954 21 14 20.1046 14 19L10 19C10 20.1046 9.10457 21 8 21H5C3.89543 21 3 20.1046 3 19L3 6C3 4.89543 3.89543 4 5 4H8ZM10 17L14 17L14 8H10L10 17ZM8 8V6H5L5 19L8 19V17.0008V17L8 8ZM16 17V8V7.99923V6H19V19L16 19V17.0018L16 17ZM24 16V10H22V16H24Z" fill="white"/>
</svg>
