<svg width="24" height="24" viewBox="0 0 24 24" fill="none" xmlns="http://www.w3.org/2000/svg">
<path fill-rule="evenodd" clip-rule="evenodd" d="M22.0002 2H9.58594L13.1636 5.57763L7.5708 11.1704L12.7192 16.3188L18.312 10.7261L22.0002 14.4142V2ZM15.992 5.57763L14.4144 4H20.0002V9.58579L18.312 7.89764L12.7192 13.4904L10.3992 11.1704L15.992 5.57763ZM8.29297 14.2929L2.29297 20.2929L3.70718 21.7071L9.70718 15.7071L8.29297 14.2929ZM2.79297 15.7929L6.29297 12.2929L7.70718 13.7071L4.20718 17.2071L2.79297 15.7929ZM10.3208 16.2956L6.8208 19.7956L8.23501 21.2098L11.735 17.7098L10.3208 16.2956Z" fill="white"/>
</svg>
