<svg width="25" height="24" viewBox="0 0 25 24" fill="none" xmlns="http://www.w3.org/2000/svg">
<path d="M16.4302 15.62C17.0487 15.62 17.5502 15.1186 17.5502 14.5C17.5502 13.8814 17.0487 13.38 16.4302 13.38C15.8116 13.38 15.3102 13.8814 15.3102 14.5C15.3102 15.1186 15.8116 15.62 16.4302 15.62Z" fill="white"/>
<path fill-rule="evenodd" clip-rule="evenodd" d="M16.4302 16.5C15.7002 16.5 14.2402 16.86 14.1902 17.58C14.6902 18.29 15.5102 18.75 16.4302 18.75C17.3502 18.75 18.1702 18.29 18.6702 17.58C18.6202 16.86 17.1602 16.5 16.4302 16.5Z" fill="white"/>
<path fill-rule="evenodd" clip-rule="evenodd" d="M17.4302 10.09V5.27L9.93018 2L2.43018 5.27V10.18C2.43018 14.72 5.63018 18.97 9.93018 20C10.4802 19.87 11.0102 19.68 11.5302 19.45C12.6102 20.99 14.4002 22 16.4302 22C19.7402 22 22.4302 19.31 22.4302 16C22.4302 13.03 20.2702 10.57 17.4302 10.09ZM10.4302 16C10.4302 16.56 10.5102 17.11 10.6602 17.62C10.4202 17.73 10.1802 17.84 9.93018 17.92C6.76018 16.92 4.43018 13.68 4.43018 10.18V6.58L9.93018 4.18L15.4302 6.58V10.09C12.5902 10.57 10.4302 13.03 10.4302 16ZM16.4302 20C14.2202 20 12.4302 18.21 12.4302 16C12.4302 13.79 14.2202 12 16.4302 12C18.6402 12 20.4302 13.79 20.4302 16C20.4302 18.21 18.6402 20 16.4302 20Z" fill="white"/>
</svg>
