<svg width="24" height="24" viewBox="0 0 24 24" fill="none" xmlns="http://www.w3.org/2000/svg">
<path fill-rule="evenodd" clip-rule="evenodd" d="M12 20C16.4183 20 20 16.4183 20 12C20 7.58172 16.4183 4 12 4C7.58172 4 4 7.58172 4 12C4 16.4183 7.58172 20 12 20ZM12 22C17.5228 22 22 17.5228 22 12C22 6.47715 17.5228 2 12 2C6.47715 2 2 6.47715 2 12C2 17.5228 6.47715 22 12 22ZM13 6V12H11V6H13ZM8 12C8 10.8808 8.45831 9.87051 9.20004 9.14338L7.79996 7.71518C6.69032 8.80297 6 10.3218 6 12C6 15.3137 8.68629 18 12 18C15.3137 18 18 15.3137 18 12C18 10.3218 17.3097 8.80297 16.2 7.71518L14.8 9.14338C15.5417 9.87051 16 10.8808 16 12C16 14.2091 14.2091 16 12 16C9.79086 16 8 14.2091 8 12Z" fill="white"/>
</svg>
