<svg width="24" height="24" viewBox="0 0 24 24" fill="none" xmlns="http://www.w3.org/2000/svg">
<path d="M19.5534 7.28647L19.165 6.33359L15.449 3L10.2154 5.26377L9.71895 8.57018L11.2904 10.564H14.7474V13.0897C14.6846 13.0391 14.6209 12.9894 14.5555 12.9417C13.6466 12.2778 12.5591 11.9269 11.4107 11.9269C10.2623 11.9269 9.17484 12.2778 8.26594 12.9417C8.12023 13.0481 7.98152 13.1625 7.84902 13.2828C6.75602 12.4113 5.37453 11.9269 3.91539 11.9269H2V21.9887L5.42781 21.034C7.43527 21.6786 9.52445 22 11.612 22C14.0441 22 16.474 21.5636 18.7689 20.6937L22 19.469V19.0909C22 15.024 21.2683 11.4938 19.5534 7.28647ZM18.3353 19.6577C14.2739 21.1972 9.76336 21.2913 5.63457 19.9225L5.45734 19.8638L3.17188 20.5003V13.042H3.91535C5.09566 13.042 6.2132 13.4336 7.09738 14.1384C6.80559 14.5586 6.58027 15.0199 6.43617 15.5047L7.56379 15.8082C8.04789 14.1795 9.6298 13.042 11.4107 13.042C13.1916 13.042 14.7735 14.1795 15.2576 15.8082L16.3852 15.5047C16.2751 15.1341 16.1175 14.7772 15.9192 14.4418V9.44884H11.8763L11.0364 8.38325H13.7002L14.074 6.8825L12.9337 6.62531L12.7736 7.26807H11.0982L11.2846 6.02615L15.2176 4.32497L18.1682 6.97197L18.4608 7.68971C20.0666 11.6294 20.7815 14.9501 20.8259 18.7136L18.3353 19.6577Z" fill="white"/>
</svg>
