<svg width="24" height="24" viewBox="0 0 24 24" fill="none" xmlns="http://www.w3.org/2000/svg">
<path fill-rule="evenodd" clip-rule="evenodd" d="M16 5.54L18.83 8.36L23.78 3.41L22.37 2L18.83 5.54L17.41 4.13L16 5.54ZM14.42 7.155L15.9075 11.25V11.2413H16.625C19.075 11.2413 21 13.1663 21 15.6163C21 18.075 18.8563 20.105 16.4062 19.9912C14.3588 19.895 12.7225 18.4513 12.3375 16.5H8.6625C8.26875 18.5212 6.5275 20 4.375 20C1.925 20 0 18.075 0 15.625C0 13.175 2.14375 11.1362 4.59375 11.2587C6.64125 11.355 8.2775 12.7987 8.6625 14.75H9.24875L7.65625 10.375H6.125V8.625H10.5V10.375H9.52875L9.84375 11.25H14.0525L12.775 7.75H10.5V6H12.775C13.51 6 14.1662 6.46375 14.42 7.155ZM4.375 18.25C5.53875 18.25 6.4925 17.5238 6.8425 16.5H4.375V14.75H6.8425C6.4925 13.7262 5.53875 13 4.375 13C2.905 13 1.75 14.155 1.75 15.625C1.75 17.095 2.905 18.25 4.375 18.25ZM11.1125 14.75H12.3375C12.46 14.0938 12.74 13.5075 13.125 13H10.4738L11.1125 14.75ZM14 15.625C14 17.095 15.155 18.25 16.625 18.25C18.095 18.25 19.2588 17.095 19.2588 15.625C19.2588 14.155 18.1038 13 16.6338 13C16.6206 13 16.6075 13.0022 16.5944 13.0044C16.5812 13.0066 16.5681 13.0087 16.555 13.0087L17.4037 15.345L15.7587 15.94L14.9187 13.63C14.3587 14.1112 14 14.8112 14 15.625Z" fill="white"/>
</svg>
