<svg width="24" height="24" viewBox="0 0 24 24" fill="none" xmlns="http://www.w3.org/2000/svg">
<path fill-rule="evenodd" clip-rule="evenodd" d="M13 3H11V13H13V3ZM19 12C19 9.41027 17.5942 7.14771 15.4993 5.93586L16.5007 4.20465C19.1882 5.75928 21 8.66747 21 12C21 16.9664 16.9773 20.9932 12.0126 21C12.0084 21 12.0042 21.0001 12 21.0001C11.8025 21.0001 11.6064 20.9937 11.4118 20.9811C10.8607 20.9455 10.4427 20.4698 10.4784 19.9187C10.514 19.3676 10.9896 18.9497 11.5408 18.9853C11.6924 18.9951 11.8456 19.0001 12 19.0001V19C15.866 19 19 15.866 19 12ZM7.49927 4.20472C7.97733 3.92818 8.58906 4.09154 8.86561 4.5696C9.14215 5.04766 8.97879 5.65939 8.50073 5.93593C8.36832 6.01253 8.23862 6.09335 8.11183 6.17822C7.65288 6.48543 7.03178 6.36242 6.72457 5.90347C6.41735 5.44451 6.54036 4.82341 6.99932 4.5162C7.16226 4.40713 7.32899 4.30322 7.49927 4.20472ZM4.51672 6.99851C4.82399 6.53959 5.4451 6.41665 5.90402 6.72392C6.36294 7.03118 6.48588 7.6523 6.17861 8.11122C6.00913 8.36434 5.8558 8.62902 5.72003 8.90378C5.47538 9.39892 4.87565 9.60198 4.38052 9.35732C3.88538 9.11267 3.68232 8.51294 3.92698 8.01781C4.10171 7.66418 4.29893 7.32379 4.51672 6.99851ZM3.01893 11.4122C3.05453 10.861 3.53017 10.4431 4.0813 10.4787C4.63244 10.5143 5.05037 10.9899 5.01477 11.5411C5.00498 11.6927 5 11.8457 5 12.0001C5 12.1545 5.00499 12.3076 5.01479 12.4593C5.0504 13.0104 4.63249 13.4861 4.08136 13.5217C3.53022 13.5573 3.05457 13.1394 3.01895 12.5883C3.00638 12.3937 3 12.1976 3 12.0001C3 11.8027 3.00637 11.6067 3.01893 11.4122ZM3.92687 15.9821C3.68223 15.487 3.8853 14.8872 4.38044 14.6426C4.87559 14.398 5.4753 14.601 5.71995 15.0962C5.85569 15.3709 6.009 15.6356 6.17844 15.8887C6.48569 16.3476 6.36273 16.9687 5.9038 17.276C5.44486 17.5832 4.82375 17.4602 4.51651 17.0013C4.29875 16.6761 4.10157 16.3357 3.92687 15.9821ZM6.99875 19.4836C6.53982 19.1763 6.41686 18.5552 6.72411 18.0963C7.03135 17.6373 7.65246 17.5144 8.11139 17.8216C8.36449 17.9911 8.62915 18.1444 8.90389 18.2801C9.39903 18.5248 9.6021 19.1245 9.35746 19.6196C9.11282 20.1148 8.5131 20.3178 8.01796 20.0732C7.66437 19.8985 7.32401 19.7013 6.99875 19.4836Z" fill="white"/>
</svg>
