<svg width="24" height="24" viewBox="0 0 24 24" fill="none" xmlns="http://www.w3.org/2000/svg">
<path d="M7.91018 7.03L1.43018 13.52L7.92018 20L14.4102 13.52L7.91018 7.03ZM4.26018 13.52L7.92018 9.86L11.5702 13.52L7.91018 17.18L4.26018 13.52ZM19.9302 7.26C18.1802 5.5 15.8702 4.62 13.5702 4.62V1.38L9.33018 5.62L13.5702 9.86V6.62C15.3602 6.62 17.1502 7.3 18.5202 8.67C21.2502 11.4 21.2502 15.84 18.5202 18.57C17.1502 19.94 15.3602 20.62 13.5702 20.62C12.6002 20.62 11.6302 20.41 10.7302 20.01L9.24018 21.5C10.5902 22.24 12.0802 22.62 13.5702 22.62C15.8702 22.62 18.1802 21.74 19.9302 19.98C23.4502 16.47 23.4502 10.77 19.9302 7.26Z" fill="white"/>
</svg>
