<svg width="24" height="24" viewBox="0 0 24 24" fill="none" xmlns="http://www.w3.org/2000/svg">
<path d="M20.3641 8.55102L19.1341 10.401C19.7272 11.5841 20.0176 12.8958 19.9792 14.2187C19.9408 15.5416 19.5749 16.8343 18.9141 17.981H5.05406C4.19523 16.4911 3.83935 14.7641 4.0392 13.0561C4.23904 11.348 4.98397 9.74984 6.16354 8.49844C7.34311 7.24705 8.89453 6.40906 10.5878 6.10871C12.2811 5.80837 14.0261 6.06165 15.5641 6.83102L17.4141 5.60102C15.5305 4.39323 13.2964 3.85202 11.0689 4.06395C8.84151 4.27588 6.7495 5.22871 5.12755 6.77003C3.5056 8.31134 2.44742 10.3521 2.12228 12.5658C1.79713 14.7796 2.22381 17.0384 3.33406 18.981C3.50857 19.2833 3.75915 19.5346 4.06089 19.7101C4.36263 19.8855 4.70503 19.9789 5.05406 19.981H18.9041C19.2565 19.9824 19.603 19.8907 19.9086 19.7151C20.2141 19.5395 20.4678 19.2862 20.6441 18.981C21.5654 17.3849 22.0278 15.5653 21.9802 13.723C21.9325 11.8807 21.3767 10.0873 20.3741 8.54102L20.3641 8.55102Z" fill="white"/>
<path d="M10.5741 15.391C10.7598 15.577 10.9804 15.7245 11.2232 15.8251C11.466 15.9258 11.7262 15.9776 11.9891 15.9776C12.2519 15.9776 12.5121 15.9258 12.7549 15.8251C12.9977 15.7245 13.2183 15.577 13.4041 15.391L19.0641 6.90102L10.5741 12.561C10.3881 12.7468 10.2406 12.9673 10.1399 13.2101C10.0393 13.4529 9.98749 13.7132 9.98749 13.976C9.98749 14.2388 10.0393 14.4991 10.1399 14.7419C10.2406 14.9847 10.3881 15.2053 10.5741 15.391Z" fill="white"/>
</svg>
