<svg width="24" height="24" viewBox="0 0 24 24" fill="none" xmlns="http://www.w3.org/2000/svg">
<path fill-rule="evenodd" clip-rule="evenodd" d="M11 22.39C7.24 22.03 4.06 19.69 2.52 16.42L3.84 15.09L0.0300008 11.28L0 11.94C0 18.23 4.84 23.38 11 23.89V22.39ZM23.97 12.6L24 11.94C24 5.65 19.16 0.5 13.01 0V1.5C16.77 1.85 19.94 4.19 21.49 7.46L20.16 8.79L23.97 12.6ZM15.0684 19.6543H9.97858H9.97614C8.23444 19.6543 6.79626 16.7303 6.57836 12.945H4.99951C4.44723 12.945 3.99951 12.4973 3.99951 11.945C3.99951 11.3927 4.44723 10.945 4.99951 10.945H6.57837C6.79593 7.16576 8.22987 4.2451 9.96781 4.23579H9.96777V4.23577H9.97614H15.0684C16.9607 4.23577 18.4948 7.68732 18.4948 11.945C18.4948 16.2027 16.9607 19.6543 15.0684 19.6543ZM8.58209 10.945C8.67898 9.46054 8.98519 8.19656 9.38098 7.30603C9.60147 6.80994 9.8173 6.50268 9.97614 6.33559C10.135 6.50268 10.3508 6.80994 10.5713 7.30603C11.0533 8.39057 11.4025 10.029 11.4025 11.945C11.4025 13.861 11.0533 15.4995 10.5713 16.584C10.3508 17.0801 10.135 17.3874 9.97615 17.5545C9.8173 17.3874 9.60146 17.0801 9.38098 16.584C8.98518 15.6935 8.67897 14.4295 8.58208 12.945H9.99951V10.945H8.58209ZM12.2786 17.6543H14.9611C14.977 17.6417 14.9977 17.624 15.0233 17.5997C15.1849 17.4459 15.4215 17.1288 15.6636 16.584C16.1456 15.4995 16.4948 13.861 16.4948 11.945C16.4948 10.029 16.1456 8.39057 15.6636 7.30603C15.4215 6.76124 15.1849 6.44418 15.0233 6.29039C14.9977 6.26602 14.977 6.24833 14.9611 6.23577H12.2786C12.969 7.64611 13.4025 9.68166 13.4025 11.945C13.4025 14.2084 12.969 16.2439 12.2786 17.6543ZM9.82908 17.6817C9.82908 17.6816 9.83059 17.6807 9.83359 17.6793C9.83057 17.6811 9.82907 17.6818 9.82908 17.6817ZM10.1187 17.6793C10.1217 17.6807 10.1232 17.6816 10.1232 17.6817C10.1232 17.6818 10.1217 17.6811 10.1187 17.6793ZM10.1232 6.20837C10.1232 6.20846 10.1217 6.20935 10.1187 6.21076C10.1217 6.20898 10.1232 6.20827 10.1232 6.20837ZM9.83359 6.21076C9.83059 6.20935 9.82908 6.20846 9.82908 6.20837C9.82907 6.20827 9.83057 6.20898 9.83359 6.21076Z" fill="white"/>
</svg>
