<svg width="24" height="24" viewBox="0 0 24 24" fill="none" xmlns="http://www.w3.org/2000/svg">
<path fill-rule="evenodd" clip-rule="evenodd" d="M16.2787 2L14.3711 3.9102L16.2787 5.81701L14.3711 7.72466L16.2787 9.63147L18.1855 7.72466L20.0932 9.63147L22 7.72466L20.0932 5.81701L22 3.9102L20.0932 2L18.1855 3.9102L16.2787 2ZM7.39543 4.46835C5.47007 4.46835 3.68471 5.49846 2.72201 7.16588C1.75932 8.8333 1.75934 10.8934 2.72201 12.5609C3.68469 14.2285 5.47004 15.2585 7.39543 15.2585H14.8136C15.5386 15.2585 16.2029 15.642 16.5654 16.2701C16.9278 16.8981 16.9278 17.6652 16.5654 18.2932C16.2029 18.9212 15.5386 19.3048 14.8136 19.3048H12.7905V22.0023H15.488V21.9517C16.9068 21.746 18.1737 20.9031 18.902 19.6411C19.7442 18.1828 19.7442 16.3788 18.902 14.9204C18.0599 13.4613 16.4978 12.56 14.8136 12.56H7.39543C6.42937 12.56 5.54173 12.0475 5.05872 11.2112C4.57571 10.375 4.57569 9.34994 5.05872 8.5137C5.54175 7.67747 6.42942 7.16494 7.39543 7.16494H13.0223L14.371 5.81617L13.0223 4.4674L7.39543 4.46835ZM8.7442 19.3048V22.0023H11.4417V19.3048H8.7442Z" fill="white"/>
</svg>
