<svg width="24" height="24" viewBox="0 0 24 24" fill="none" xmlns="http://www.w3.org/2000/svg">
<path fill-rule="evenodd" clip-rule="evenodd" d="M7 4V3H13V4H18V6H17V10H15V6H5V19H9V21H4C3.44772 21 3 20.5523 3 20V6H2V4H7ZM18.9487 11.6838C18.8126 11.2754 18.4305 11 18 11H15.5V13H17.2793L18.3692 16.2698C18.0263 16.444 17.729 16.6949 17.4998 17H14.5002C14.0441 16.3928 13.3179 16 12.5 16H15V14H10V16H12.5C11.1193 16 10 17.1193 10 18.5C10 19.8807 11.1193 21 12.5 21C13.7095 21 14.7184 20.1411 14.95 19H17.05C17.2816 20.1411 18.2905 21 19.5 21C20.8807 21 22 19.8807 22 18.5C22 17.4538 21.3574 16.5577 20.4453 16.1849L20.4487 16.1838L18.9487 11.6838ZM12 18.5C12 18.2239 12.2239 18 12.5 18C12.7761 18 13 18.2239 13 18.5C13 18.7761 12.7761 19 12.5 19C12.2239 19 12 18.7761 12 18.5ZM19.5 18C19.2239 18 19 18.2239 19 18.5C19 18.7761 19.2239 19 19.5 19C19.7761 19 20 18.7761 20 18.5C20 18.2239 19.7761 18 19.5 18Z" fill="white"/>
</svg>
