<svg width="24" height="24" viewBox="0 0 24 24" fill="none" xmlns="http://www.w3.org/2000/svg">
<path fill-rule="evenodd" clip-rule="evenodd" d="M12 16.9C15.79 16.9 19.17 14.77 20.82 11.4L21.4 10.4L23 11.4C22.2754 13.2387 21.1052 14.8529 19.6224 16.1081L20.8285 17.3142L19.4143 18.7284L17.9676 17.2817C17.1046 17.7885 16.1716 18.1889 15.1867 18.4646L15.7425 20.5389L13.8106 21.0566L13.2162 18.8381C12.8164 18.879 12.4107 18.9 12 18.9C11.5149 18.9 11.0366 18.8707 10.5669 18.8138L9.96594 21.0566L8.03409 20.539L8.60603 18.4045C7.48939 18.0696 6.44231 17.5738 5.49144 16.9439L3.70696 18.7284L2.29274 17.3142L3.91327 15.6937C2.64988 14.5055 1.6472 13.0423 1 11.4L2.6 10.4L3.18 11.4C4.83 14.77 8.21 16.9 12 16.9Z" fill="white"/>
</svg>
