<svg width="24" height="24" viewBox="0 0 24 24" fill="none" xmlns="http://www.w3.org/2000/svg">
<path d="M4.47012 20.5037H19.5301C21.0701 20.5037 22.0301 18.8337 21.2601 17.5037L13.7301 4.49375C12.9601 3.16375 11.0401 3.16375 10.2701 4.49375L2.74012 17.5037C1.97012 18.8337 2.93012 20.5037 4.47012 20.5037ZM12.0001 13.5037C11.4501 13.5037 11.0001 13.0537 11.0001 12.5037V10.5037C11.0001 9.95375 11.4501 9.50375 12.0001 9.50375C12.5501 9.50375 13.0001 9.95375 13.0001 10.5037V12.5037C13.0001 13.0537 12.5501 13.5037 12.0001 13.5037ZM13.0001 17.5037H11.0001V15.5037H13.0001V17.5037Z" fill="white"/>
</svg>
