<svg width="24" height="24" viewBox="0 0 24 24" fill="none" xmlns="http://www.w3.org/2000/svg">
<path fill-rule="evenodd" clip-rule="evenodd" d="M16.061 11C16.1452 10.7308 16.1906 10.4445 16.1906 10.1476C16.1906 8.74046 15.1717 7.57133 13.8315 7.33768C13.5607 5.93057 12.6006 4.76875 11.3164 4.21746C12.0292 2.89711 13.4254 2 15.0312 2C17.0869 2 18.7992 3.47039 19.1738 5.41684C20.4954 5.64714 21.5001 6.79996 21.5001 8.18745C21.5001 9.74074 20.2409 10.9999 18.6876 10.9999V11H16.061ZM5.92235 13H13.3378C13.5881 13 13.8315 12.9677 14.0628 12.9071C15.287 12.5863 16.1905 11.4724 16.1905 10.1476C16.1905 8.74046 15.1716 7.57133 13.8314 7.33768C13.4515 5.36359 11.7149 3.87231 9.62999 3.87231C7.98778 3.87231 6.56167 4.7975 5.84444 6.15508C3.98981 6.19625 2.49902 7.71257 2.49902 9.57708C2.49902 11.2825 3.7463 12.6967 5.37843 12.957C5.55513 12.9852 5.73772 13 5.92235 13ZM7.54497 11.5H11.6335L13.3381 11.4999C14.085 11.4999 14.6905 10.8945 14.6905 10.1476C14.6905 9.48196 14.2081 8.92599 13.5738 8.81539L12.554 8.6376L12.3584 7.6211C12.1119 6.33989 10.9823 5.37231 9.62999 5.37231C8.5656 5.37231 7.63851 5.97034 7.17073 6.85577L6.75898 7.63515L5.87773 7.65471C4.83654 7.67782 3.99902 8.52985 3.99902 9.57708C3.99902 10.6391 4.85992 11.4999 5.92189 11.4999L7.54497 11.5ZM6.35059 13.625L5.85059 14.491L7.14962 15.241L7.64962 14.375L6.35059 13.625ZM4.85059 16.2231L3.85059 17.9551L5.14962 18.7051L6.14962 16.9731L4.85059 16.2231ZM2.85059 19.6872L2.35059 20.5532L3.64962 21.3032L4.14962 20.4372L2.85059 19.6872ZM10.8506 14.491L11.3506 13.625L12.6496 14.375L12.1496 15.241L10.8506 14.491ZM8.85059 17.9551L9.85059 16.2231L11.1496 16.9731L10.1496 18.7051L8.85059 17.9551ZM7.35059 20.5532L7.85059 19.6872L9.14962 20.4372L8.64962 21.3032L7.35059 20.5532ZM16.3506 13.625L15.8506 14.491L17.1496 15.241L17.6496 14.375L16.3506 13.625ZM14.8506 16.2231L13.8506 17.9551L15.1496 18.7051L16.1496 16.9731L14.8506 16.2231ZM12.8506 19.6872L12.3506 20.5532L13.6496 21.3032L14.1496 20.4372L12.8506 19.6872Z" fill="white"/>
</svg>
