<svg width="24" height="24" viewBox="0 0 24 24" fill="none" xmlns="http://www.w3.org/2000/svg">
<path fill-rule="evenodd" clip-rule="evenodd" d="M23.6252 8.75C23.6252 10.6581 22.8335 12.3813 21.5607 13.6089C20.9581 12.2232 19.6888 11.1944 18.1578 10.9275C17.5492 7.76444 14.7667 5.375 11.426 5.375C11.4175 5.375 11.409 5.37501 11.4006 5.37504C11.409 5.37501 11.4174 5.375 11.4258 5.375C14.7664 5.375 17.549 7.76444 18.1576 10.9275C20.305 11.3019 21.9375 13.1751 21.9375 15.4297C21.9375 17.4096 20.6785 19.0955 18.9173 19.7304C18.4335 19.9048 17.9111 20 17.3672 20L5.48437 20.0001C2.45544 20.0001 0 17.5446 0 14.5156C0 11.5282 2.38866 9.09859 5.36029 9.03262C6.45021 6.96961 8.56181 5.52977 11.0215 5.38673C12.1869 3.36268 14.3719 2 16.8752 2C20.6031 2 23.6252 5.02208 23.6252 8.75ZM14.9894 18.0001H7.48437L5.48438 18C3.56001 18 2 16.44 2 14.5156C2 12.6179 3.51763 11.074 5.40468 11.0321L6.57967 11.006L7.12867 9.96688C7.94528 8.4212 9.56495 7.375 11.4258 7.375C13.7896 7.375 15.7628 9.06618 16.1936 11.3054L16.4544 12.6607L17.8141 12.8978C19.0204 13.1081 19.9375 14.1638 19.9375 15.4297C19.9375 16.8492 18.7867 18 17.3672 18L14.9894 18.0001Z" fill="white"/>
</svg>
