<svg width="24" height="24" viewBox="0 0 24 24" fill="none" xmlns="http://www.w3.org/2000/svg">
<path fill-rule="evenodd" clip-rule="evenodd" d="M11.426 5C14.7666 5 17.5491 7.38944 18.1578 10.5525C19.8459 10.8468 21.2159 12.0675 21.7246 13.6715C23.0292 13.0845 23.9376 11.7733 23.9376 10.25C23.9376 8.40007 22.5981 6.86304 20.8361 6.55586C20.3368 3.96056 18.0537 2 15.3126 2C13.1537 2 11.2788 3.21633 10.3358 5.00111C8.96064 5.03164 7.7376 5.6791 6.93254 6.67766C6.29383 7.2324 5.75878 7.90336 5.36029 8.65762C2.38866 8.72359 0 11.1532 0 14.1406C0 17.1696 2.45544 19.6251 5.48437 19.6251L17.3672 19.625C17.9111 19.625 18.4335 19.5298 18.9173 19.3554C20.6785 18.7205 21.9375 17.0346 21.9375 15.0547C21.9375 12.8001 20.305 10.9269 18.1576 10.5525C17.549 7.3895 14.7665 5.00008 11.426 5ZM14.9894 17.6251H7.48437L5.48438 17.625C3.56001 17.625 2 16.065 2 14.1406C2 12.2429 3.51763 10.699 5.40468 10.6571L6.57967 10.631L7.12867 9.59188C7.94528 8.0462 9.56495 7 11.4258 7C13.7896 7 15.7628 8.69118 16.1936 10.9304L16.4544 12.2857L17.8141 12.5228C19.0204 12.7331 19.9375 13.7888 19.9375 15.0547C19.9375 16.4742 18.7867 17.625 17.3672 17.625L14.9894 17.6251Z" fill="white"/>
</svg>
