<svg width="24" height="24" viewBox="0 0 24 24" fill="none" xmlns="http://www.w3.org/2000/svg">
<path fill-rule="evenodd" clip-rule="evenodd" d="M17.837 10.277C19.6048 9.77424 20.8993 8.14767 20.8993 6.21873C20.8993 3.88879 19.0105 2 16.6806 2C15.0749 2 13.6786 2.89712 12.9658 4.21748C14.25 4.76878 15.2101 5.93058 15.4808 7.33768C16.8211 7.57133 17.8399 8.74046 17.8399 10.1476C17.8399 10.1909 17.8389 10.2341 17.837 10.277ZM7.57176 13H14.9872C15.2375 13 15.4809 12.9677 15.7122 12.9071C16.9364 12.5863 17.8399 11.4724 17.8399 10.1476C17.8399 8.74046 16.821 7.57133 15.4808 7.33768C15.101 5.36359 13.3643 3.87231 11.2794 3.87231C9.6372 3.87231 8.21108 4.7975 7.49386 6.15508C5.63923 6.19625 4.14844 7.71257 4.14844 9.57708C4.14844 11.2825 5.39572 12.6967 7.02784 12.957C7.20454 12.9852 7.38713 13 7.57176 13ZM9.19439 11.5H13.2829L14.9875 11.4999C15.7344 11.4999 16.3399 10.8945 16.3399 10.1476C16.3399 9.48196 15.8575 8.92599 15.2232 8.81539L14.2034 8.6376L14.0078 7.6211C13.7613 6.33989 12.6317 5.37231 11.2794 5.37231C10.215 5.37231 9.28792 5.97034 8.82014 6.85577L8.40839 7.63515L7.52715 7.65471C6.48595 7.67782 5.64844 8.52985 5.64844 9.57708C5.64844 10.6391 6.50933 11.4999 7.5713 11.4999L9.19439 11.5ZM8 13.625L7.5 14.491L8.79904 15.241L9.29904 14.375L8 13.625ZM6.5 16.2231L5.5 17.9551L6.79904 18.7051L7.79904 16.9731L6.5 16.2231ZM4.5 19.6872L4 20.5532L5.29904 21.3032L5.79904 20.4372L4.5 19.6872ZM12.5 14.491L13 13.625L14.299 14.375L13.799 15.241L12.5 14.491ZM10.5 17.9551L11.5 16.2231L12.799 16.9731L11.799 18.7051L10.5 17.9551ZM9 20.5532L9.5 19.6872L10.799 20.4372L10.299 21.3032L9 20.5532ZM18 13.625L17.5 14.491L18.799 15.241L19.299 14.375L18 13.625ZM16.5 16.2231L15.5 17.9551L16.799 18.7051L17.799 16.9731L16.5 16.2231ZM14.5 19.6872L14 20.5532L15.299 21.3032L15.799 20.4372L14.5 19.6872Z" fill="white"/>
</svg>
