<svg width="24" height="24" viewBox="0 0 24 24" fill="none" xmlns="http://www.w3.org/2000/svg">
<path fill-rule="evenodd" clip-rule="evenodd" d="M20 12C20 16.4183 16.4183 20 12 20C7.58172 20 4 16.4183 4 12C4 7.58172 7.58172 4 12 4C16.4183 4 20 7.58172 20 12ZM22 12C22 17.5228 17.5228 22 12 22C6.47715 22 2 17.5228 2 12C2 6.47715 6.47715 2 12 2C17.5228 2 22 6.47715 22 12ZM7.09091 11.7918L6 10.6345C9.31636 7.12185 14.6891 7.12185 18 10.6345L16.9091 11.7918C14.1982 8.91577 9.80182 8.91577 7.09091 11.7918ZM12 17L10.3636 15.2639C11.2691 14.3033 12.7364 14.3033 13.6364 15.2639L12 17ZM9.27273 14.1066L8.18182 12.9492C10.2927 10.7155 13.7127 10.7155 15.8182 12.9492L14.7273 14.1066C13.2218 12.5094 10.7782 12.5094 9.27273 14.1066Z" fill="white"/>
</svg>
