<svg width="24" height="24" viewBox="0 0 24 24" fill="none" xmlns="http://www.w3.org/2000/svg">
<path fill-rule="evenodd" clip-rule="evenodd" d="M12 20C16.4183 20 20 16.4183 20 12C20 7.58172 16.4183 4 12 4C7.58172 4 4 7.58172 4 12C4 16.4183 7.58172 20 12 20ZM12 22C17.5228 22 22 17.5228 22 12C22 6.47715 17.5228 2 12 2C6.47715 2 2 6.47715 2 12C2 17.5228 6.47715 22 12 22ZM6.5 7.5L7.34853 6.65147L15.8351 15.138L14.9866 15.9866L11.9098 12.9098C10.9528 12.9334 10.0025 13.3323 9.27273 14.1066L8.18182 12.9492C8.85057 12.2415 9.6507 11.7581 10.4988 11.4988L9.23972 10.2397C8.45945 10.598 7.72855 11.1153 7.09091 11.7918L6 10.6345C6.61712 9.98082 7.30544 9.44882 8.03844 9.03844L6.5 7.5ZM10.1874 8.20692L11.6259 9.64542C13.5252 9.53736 15.4585 10.2528 16.9091 11.7918L18 10.6345C15.8806 8.38593 12.9163 7.57675 10.1874 8.20692ZM13.4683 11.4878L15.3871 13.4066L15.8182 12.9492C15.1416 12.2314 14.3293 11.7443 13.4683 11.4878ZM10.3636 15.2639L12 17L13.6364 15.2639C12.7364 14.3033 11.2691 14.3033 10.3636 15.2639Z" fill="white"/>
</svg>
